  0
SECTION
  2
HEADER
  9
$ACADVER
  1
AC1009
  9
$DWGCODEPAGE
  3
ANSI_1252
  9
$INSBASE
 10
0.0
 20
0.0
 30
0.0
  9
$EXTMIN
 10
1e+20
 20
1e+20
 30
1e+20
  9
$EXTMAX
 10
-1e+20
 20
-1e+20
 30
-1e+20
  9
$LIMMIN
 10
0.0
 20
0.0
  9
$LIMMAX
 10
420.0
 20
297.0
  9
$ORTHOMODE
 70
0
  9
$REGENMODE
 70
1
  9
$FILLMODE
 70
1
  9
$DRAGMODE
 70
2
  9
$QTEXTMODE
 70
0
  9
$MIRRTEXT
 70
1
  9
$OSMODE
 70
20583
  9
$LTSCALE
 40
1.0
  9
$ATTMODE
 70
1
  9
$TEXTSIZE
 40
2.5
  9
$TRACEWID
 40
1.0
  9
$TEXTSTYLE
  7
Standard
  9
$CLAYER
  8
0
  9
$CELTYPE
  6
ByLayer
  9
$CECOLOR
 62
256
  9
$DIMSCALE
 40
1.0
  9
$DIMASZ
 40
2.5
  9
$DIMEXO
 40
0.625
  9
$DIMDLI
 40
3.75
  9
$DIMRND
 40
0.0
  9
$DIMDLE
 40
0.0
  9
$DIMEXE
 40
1.25
  9
$DIMTP
 40
0.0
  9
$DIMTM
 40
0.0
  9
$DIMTXT
 40
2.5
  9
$DIMCEN
 40
2.5
  9
$DIMTSZ
 40
0.0
  9
$DIMTOL
 70
0
  9
$DIMLIM
 70
0
  9
$DIMTIH
 70
0
  9
$DIMTOH
 70
0
  9
$DIMSE1
 70
0
  9
$DIMSE2
 70
0
  9
$DIMTAD
 70
1
  9
$DIMZIN
 70
8
  9
$DIMBLK
  1

  9
$DIMASO
 70
1
  9
$DIMSHO
 70
1
  9
$DIMPOST
  1

  9
$DIMAPOST
  1

  9
$DIMALT
 70
0
  9
$DIMALTD
 70
3
  9
$DIMALTF
 40
0.03937007874
  9
$DIMLFAC
 40
1.0
  9
$DIMTOFL
 70
1
  9
$DIMTVP
 40
0.0
  9
$DIMTIX
 70
0
  9
$DIMSOXD
 70
0
  9
$DIMSAH
 70
0
  9
$DIMBLK1
  1

  9
$DIMBLK2
  1

  9
$DIMSTYLE
  2
ISO-25
  9
$DIMCLRD
 70
0
  9
$DIMCLRE
 70
0
  9
$DIMCLRT
 70
0
  9
$DIMTFAC
 40
1.0
  9
$DIMGAP
 40
0.625
  9
$COORDS
 70
1
  9
$ATTDIA
 70
0
  9
$ATTREQ
 70
1
  9
$HANDLING
 70
1
  9
$LUNITS
 70
2
  9
$LUPREC
 70
4
  9
$SKETCHINC
 40
1.0
  9
$FILLETRAD
 40
10.0
  9
$AUNITS
 70
0
  9
$AUPREC
 70
2
  9
$MENU
  1
.
  9
$ELEVATION
 40
0.0
  9
$PELEVATION
 40
0.0
  9
$THICKNESS
 40
0.0
  9
$LIMCHECK
 70
0
  9
$CHAMFERA
 40
0.0
  9
$CHAMFERB
 40
0.0
  9
$SKPOLY
 70
0
  9
$TDCREATE
 40
2461317.9530092594
  9
$TDUPDATE
 40
2461317.9530208334
  9
$TDINDWG
 40
0.0
  9
$TDUSRTIMER
 40
0.0
  9
$USRTIMER
 70
1
  9
$ANGBASE
 50
0.0
  9
$ANGDIR
 70
0
  9
$PDMODE
 70
0
  9
$PDSIZE
 40
0.0
  9
$PLINEWID
 40
0.0
  9
$SPLFRAME
 70
0
  9
$SPLINETYPE
 70
6
  9
$SPLINESEGS
 70
8
  9
$HANDSEED
  5
35D
  9
$SURFTAB1
 70
6
  9
$SURFTAB2
 70
6
  9
$SURFTYPE
 70
6
  9
$SURFU
 70
6
  9
$SURFV
 70
6
  9
$UCSNAME
  2

  9
$UCSORG
 10
0.0
 20
0.0
 30
0.0
  9
$UCSXDIR
 10
1.0
 20
0.0
 30
0.0
  9
$UCSYDIR
 10
0.0
 20
1.0
 30
0.0
  9
$PUCSNAME
  2

  9
$PUCSORG
 10
0.0
 20
0.0
 30
0.0
  9
$PUCSXDIR
 10
1.0
 20
0.0
 30
0.0
  9
$PUCSYDIR
 10
0.0
 20
1.0
 30
0.0
  9
$USERI1
 70
0
  9
$USERI2
 70
0
  9
$USERI3
 70
0
  9
$USERI4
 70
0
  9
$USERI5
 70
0
  9
$USERR1
 40
0.0
  9
$USERR2
 40
0.0
  9
$USERR3
 40
0.0
  9
$USERR4
 40
0.0
  9
$USERR5
 40
0.0
  9
$WORLDVIEW
 70
1
  9
$SHADEDGE
 70
3
  9
$SHADEDIF
 70
70
  9
$TILEMODE
 70
1
  9
$MAXACTVP
 70
64
  9
$PLIMCHECK
 70
0
  9
$PEXTMIN
 10
1e+20
 20
1e+20
 30
1e+20
  9
$PEXTMAX
 10
-1e+20
 20
-1e+20
 30
-1e+20
  9
$PLIMMIN
 10
0.0
 20
0.0
  9
$PLIMMAX
 10
420.0
 20
297.0
  9
$UNITMODE
 70
0
  9
$VISRETAIN
 70
1
  9
$PLINEGEN
 70
0
  9
$PSLTSCALE
 70
1
  0
ENDSEC
  0
SECTION
  2
TABLES
  0
TABLE
  2
VPORT
 70
1
  0
VPORT
  5
23
  2
*Active
 70
0
 10
0.0
 20
0.0
 11
1.0
 21
1.0
 12
0.0
 22
0.0
 13
0.0
 23
0.0
 14
0.5
 24
0.5
 15
0.5
 25
0.5
 16
0.0
 26
0.0
 36
1.0
 17
0.0
 27
0.0
 37
0.0
 40
1000.0
 41
1.34
 42
50.0
 43
0.0
 44
0.0
 50
0.0
 51
0.0
 71
0
 72
1000
 73
1
 74
3
 75
0
 76
0
 77
0
 78
0
  0
ENDTAB
  0
TABLE
  2
LTYPE
 70
3
  0
LTYPE
  5
24
  2
ByBlock
 70
0
  3

 72
65
 73
0
 40
0.0
  0
LTYPE
  5
25
  2
ByLayer
 70
0
  3

 72
65
 73
0
 40
0.0
  0
LTYPE
  5
26
  2
Continuous
 70
0
  3

 72
65
 73
0
 40
0.0
  0
ENDTAB
  0
TABLE
  2
LAYER
 70
2
  0
LAYER
  5
27
  2
0
 70
0
 62
7
  6
Continuous
  0
LAYER
  5
28
  2
Defpoints
 70
0
 62
7
  6
Continuous
  0
ENDTAB
  0
TABLE
  2
STYLE
 70
1
  0
STYLE
  5
29
  2
Standard
 70
0
 40
0.0
 41
1.0
 50
0.0
 71
0
 42
2.5
  3
txt
  4

  0
ENDTAB
  0
TABLE
  2
VIEW
 70
0
  0
ENDTAB
  0
TABLE
  2
UCS
 70
0
  0
ENDTAB
  0
TABLE
  2
APPID
 70
3
  0
APPID
  5
2A
  2
ACAD
 70
0
  0
APPID
  5
35B
  2
HATCHBACKGROUNDCOLOR
 70
0
  0
APPID
  5
35C
  2
EZDXF
 70
0
  0
ENDTAB
  0
TABLE
  2
DIMSTYLE
 70
1
  0
DIMSTYLE
105
2B
  2
Standard
 70
0
  3

  4

  5

  6

  7

 40
1.0
 41
2.5
 42
0.625
 43
3.75
 44
1.25
 45
0.0
 46
0.0
 47
0.0
 48
0.0
140
2.5
141
2.5
142
0.0
143
0.03937007874
144
1.0
145
0.0
146
1.0
147
0.625
 71
0
 72
0
 73
0
 74
0
 75
0
 76
0
 77
1
 78
8
170
0
171
3
172
1
173
0
174
0
175
0
176
0
177
0
178
0
  0
ENDTAB
  0
ENDSEC
  0
SECTION
  2
BLOCKS
  0
BLOCK
  5
18
  8
0
  2
$Model_Space
 70
0
 10
0.0
 20
0.0
 30
0.0
  3
$Model_Space
  1

1001
EZDXF
1000
CREATED_BY_EZDXF
1000
1.4.4 @ 2026-10-03T13:52:20.416799+00:00
1000
WRITTEN_BY_EZDXF
1000
1.4.4 @ 2026-10-03T13:52:21.318377+00:00
  0
ENDBLK
  5
19
  8
0
  0
BLOCK
  5
1C
  8
0
  2
$Paper_Space
 70
0
 10
0.0
 20
0.0
 30
0.0
  3
$Paper_Space
  1

  0
ENDBLK
  5
1D
  8
0
  0
ENDSEC
  0
SECTION
  2
ENTITIES
  0
LINE
  5
2D
  8
0
 10
22.0
 20
36.0
 30
0.0
 11
25.0
 21
36.0
 31
0.0
  0
LINE
  5
2E
  8
0
 10
20.0
 20
35.0
 30
0.0
 11
22.0
 21
35.0
 31
0.0
  0
LINE
  5
2F
  8
0
 10
19.0
 20
34.0
 30
0.0
 11
20.0
 21
34.0
 31
0.0
  0
LINE
  5
30
  8
0
 10
25.0
 20
34.0
 30
0.0
 11
26.0
 21
34.0
 31
0.0
  0
LINE
  5
31
  8
0
 10
18.0
 20
33.0
 30
0.0
 11
19.0
 21
33.0
 31
0.0
  0
LINE
  5
32
  8
0
 10
26.0
 20
33.0
 30
0.0
 11
27.0
 21
33.0
 31
0.0
  0
LINE
  5
33
  8
0
 10
30.0
 20
33.0
 30
0.0
 11
33.0
 21
33.0
 31
0.0
  0
LINE
  5
34
  8
0
 10
29.0
 20
32.0
 30
0.0
 11
30.0
 21
32.0
 31
0.0
  0
LINE
  5
35
  8
0
 10
18.0
 20
31.0
 30
0.0
 11
19.0
 21
31.0
 31
0.0
  0
LINE
  5
36
  8
0
 10
27.0
 20
31.0
 30
0.0
 11
29.0
 21
31.0
 31
0.0
  0
LINE
  5
37
  8
0
 10
15.0
 20
30.0
 30
0.0
 11
17.0
 21
30.0
 31
0.0
  0
LINE
  5
38
  8
0
 10
19.0
 20
30.0
 30
0.0
 11
20.0
 21
30.0
 31
0.0
  0
LINE
  5
39
  8
0
 10
32.0
 20
30.0
 30
0.0
 11
33.0
 21
30.0
 31
0.0
  0
LINE
  5
3A
  8
0
 10
14.0
 20
29.0
 30
0.0
 11
15.0
 21
29.0
 31
0.0
  0
LINE
  5
3B
  8
0
 10
31.0
 20
29.0
 30
0.0
 11
32.0
 21
29.0
 31
0.0
  0
LINE
  5
3C
  8
0
 10
48.0
 20
29.0
 30
0.0
 11
53.0
 21
29.0
 31
0.0
  0
LINE
  5
3D
  8
0
 10
62.0
 20
29.0
 30
0.0
 11
66.0
 21
29.0
 31
0.0
  0
LINE
  5
3E
  8
0
 10
68.0
 20
29.0
 30
0.0
 11
76.0
 21
29.0
 31
0.0
  0
LINE
  5
3F
  8
0
 10
13.0
 20
28.0
 30
0.0
 11
14.0
 21
28.0
 31
0.0
  0
LINE
  5
40
  8
0
 10
17.0
 20
28.0
 30
0.0
 11
18.0
 21
28.0
 31
0.0
  0
LINE
  5
41
  8
0
 10
53.0
 20
28.0
 30
0.0
 11
55.0
 21
28.0
 31
0.0
  0
LINE
  5
42
  8
0
 10
61.0
 20
28.0
 30
0.0
 11
62.0
 21
28.0
 31
0.0
  0
LINE
  5
43
  8
0
 10
65.0
 20
28.0
 30
0.0
 11
66.0
 21
28.0
 31
0.0
  0
LINE
  5
44
  8
0
 10
67.0
 20
28.0
 30
0.0
 11
68.0
 21
28.0
 31
0.0
  0
LINE
  5
45
  8
0
 10
76.0
 20
28.0
 30
0.0
 11
77.0
 21
28.0
 31
0.0
  0
LINE
  5
46
  8
0
 10
105.0
 20
28.0
 30
0.0
 11
109.0
 21
28.0
 31
0.0
  0
LINE
  5
47
  8
0
 10
119.0
 20
28.0
 30
0.0
 11
123.0
 21
28.0
 31
0.0
  0
LINE
  5
48
  8
0
 10
18.0
 20
27.0
 30
0.0
 11
20.0
 21
27.0
 31
0.0
  0
LINE
  5
49
  8
0
 10
31.0
 20
27.0
 30
0.0
 11
33.0
 21
27.0
 31
0.0
  0
LINE
  5
4A
  8
0
 10
48.0
 20
27.0
 30
0.0
 11
50.0
 21
27.0
 31
0.0
  0
LINE
  5
4B
  8
0
 10
64.0
 20
27.0
 30
0.0
 11
65.0
 21
27.0
 31
0.0
  0
LINE
  5
4C
  8
0
 10
66.0
 20
27.0
 30
0.0
 11
67.0
 21
27.0
 31
0.0
  0
LINE
  5
4D
  8
0
 10
71.0
 20
27.0
 30
0.0
 11
73.0
 21
27.0
 31
0.0
  0
LINE
  5
4E
  8
0
 10
89.0
 20
27.0
 30
0.0
 11
92.0
 21
27.0
 31
0.0
  0
LINE
  5
4F
  8
0
 10
102.0
 20
27.0
 30
0.0
 11
105.0
 21
27.0
 31
0.0
  0
LINE
  5
50
  8
0
 10
109.0
 20
27.0
 30
0.0
 11
111.0
 21
27.0
 31
0.0
  0
LINE
  5
51
  8
0
 10
116.0
 20
27.0
 30
0.0
 11
119.0
 21
27.0
 31
0.0
  0
LINE
  5
52
  8
0
 10
123.0
 20
27.0
 30
0.0
 11
126.0
 21
27.0
 31
0.0
  0
LINE
  5
53
  8
0
 10
12.0
 20
26.0
 30
0.0
 11
13.0
 21
26.0
 31
0.0
  0
LINE
  5
54
  8
0
 10
33.0
 20
26.0
 30
0.0
 11
34.0
 21
26.0
 31
0.0
  0
LINE
  5
55
  8
0
 10
50.0
 20
26.0
 30
0.0
 11
51.0
 21
26.0
 31
0.0
  0
LINE
  5
56
  8
0
 10
55.0
 20
26.0
 30
0.0
 11
56.0
 21
26.0
 31
0.0
  0
LINE
  5
57
  8
0
 10
60.0
 20
26.0
 30
0.0
 11
61.0
 21
26.0
 31
0.0
  0
LINE
  5
58
  8
0
 10
70.0
 20
26.0
 30
0.0
 11
71.0
 21
26.0
 31
0.0
  0
LINE
  5
59
  8
0
 10
73.0
 20
26.0
 30
0.0
 11
75.0
 21
26.0
 31
0.0
  0
LINE
  5
5A
  8
0
 10
92.0
 20
26.0
 30
0.0
 11
93.0
 21
26.0
 31
0.0
  0
LINE
  5
5B
  8
0
 10
101.0
 20
26.0
 30
0.0
 11
102.0
 21
26.0
 31
0.0
  0
LINE
  5
5C
  8
0
 10
104.0
 20
26.0
 30
0.0
 11
110.0
 21
26.0
 31
0.0
  0
LINE
  5
5D
  8
0
 10
115.0
 20
26.0
 30
0.0
 11
116.0
 21
26.0
 31
0.0
  0
LINE
  5
5E
  8
0
 10
119.0
 20
26.0
 30
0.0
 11
124.0
 21
26.0
 31
0.0
  0
LINE
  5
5F
  8
0
 10
34.0
 20
25.0
 30
0.0
 11
36.0
 21
25.0
 31
0.0
  0
LINE
  5
60
  8
0
 10
51.0
 20
25.0
 30
0.0
 11
52.0
 21
25.0
 31
0.0
  0
LINE
  5
61
  8
0
 10
56.0
 20
25.0
 30
0.0
 11
57.0
 21
25.0
 31
0.0
  0
LINE
  5
62
  8
0
 10
59.0
 20
25.0
 30
0.0
 11
60.0
 21
25.0
 31
0.0
  0
LINE
  5
63
  8
0
 10
63.0
 20
25.0
 30
0.0
 11
64.0
 21
25.0
 31
0.0
  0
LINE
  5
64
  8
0
 10
65.0
 20
25.0
 30
0.0
 11
66.0
 21
25.0
 31
0.0
  0
LINE
  5
65
  8
0
 10
88.0
 20
25.0
 30
0.0
 11
89.0
 21
25.0
 31
0.0
  0
LINE
  5
66
  8
0
 10
100.0
 20
25.0
 30
0.0
 11
101.0
 21
25.0
 31
0.0
  0
LINE
  5
67
  8
0
 10
118.0
 20
25.0
 30
0.0
 11
119.0
 21
25.0
 31
0.0
  0
LINE
  5
68
  8
0
 10
124.0
 20
25.0
 30
0.0
 11
125.0
 21
25.0
 31
0.0
  0
LINE
  5
69
  8
0
 10
11.0
 20
24.0
 30
0.0
 11
12.0
 21
24.0
 31
0.0
  0
LINE
  5
6A
  8
0
 10
36.0
 20
24.0
 30
0.0
 11
38.0
 21
24.0
 31
0.0
  0
LINE
  5
6B
  8
0
 10
62.0
 20
24.0
 30
0.0
 11
63.0
 21
24.0
 31
0.0
  0
LINE
  5
6C
  8
0
 10
65.0
 20
24.0
 30
0.0
 11
66.0
 21
24.0
 31
0.0
  0
LINE
  5
6D
  8
0
 10
70.0
 20
24.0
 30
0.0
 11
71.0
 21
24.0
 31
0.0
  0
LINE
  5
6E
  8
0
 10
75.0
 20
24.0
 30
0.0
 11
77.0
 21
24.0
 31
0.0
  0
LINE
  5
6F
  8
0
 10
103.0
 20
24.0
 30
0.0
 11
104.0
 21
24.0
 31
0.0
  0
LINE
  5
70
  8
0
 10
110.0
 20
24.0
 30
0.0
 11
111.0
 21
24.0
 31
0.0
  0
LINE
  5
71
  8
0
 10
114.0
 20
24.0
 30
0.0
 11
115.0
 21
24.0
 31
0.0
  0
LINE
  5
72
  8
0
 10
117.0
 20
24.0
 30
0.0
 11
118.0
 21
24.0
 31
0.0
  0
LINE
  5
73
  8
0
 10
125.0
 20
24.0
 30
0.0
 11
126.0
 21
24.0
 31
0.0
  0
LINE
  5
74
  8
0
 10
38.0
 20
23.0
 30
0.0
 11
39.0
 21
23.0
 31
0.0
  0
LINE
  5
75
  8
0
 10
52.0
 20
23.0
 30
0.0
 11
53.0
 21
23.0
 31
0.0
  0
LINE
  5
76
  8
0
 10
57.0
 20
23.0
 30
0.0
 11
59.0
 21
23.0
 31
0.0
  0
LINE
  5
77
  8
0
 10
71.0
 20
23.0
 30
0.0
 11
73.0
 21
23.0
 31
0.0
  0
LINE
  5
78
  8
0
 10
90.0
 20
23.0
 30
0.0
 11
91.0
 21
23.0
 31
0.0
  0
LINE
  5
79
  8
0
 10
93.0
 20
23.0
 30
0.0
 11
94.0
 21
23.0
 31
0.0
  0
LINE
  5
7A
  8
0
 10
10.0
 20
22.0
 30
0.0
 11
11.0
 21
22.0
 31
0.0
  0
LINE
  5
7B
  8
0
 10
39.0
 20
22.0
 30
0.0
 11
41.0
 21
22.0
 31
0.0
  0
LINE
  5
7C
  8
0
 10
61.0
 20
22.0
 30
0.0
 11
62.0
 21
22.0
 31
0.0
  0
LINE
  5
7D
  8
0
 10
66.0
 20
22.0
 30
0.0
 11
67.0
 21
22.0
 31
0.0
  0
LINE
  5
7E
  8
0
 10
73.0
 20
22.0
 30
0.0
 11
75.0
 21
22.0
 31
0.0
  0
LINE
  5
7F
  8
0
 10
87.0
 20
22.0
 30
0.0
 11
88.0
 21
22.0
 31
0.0
  0
LINE
  5
80
  8
0
 10
89.0
 20
22.0
 30
0.0
 11
90.0
 21
22.0
 31
0.0
  0
LINE
  5
81
  8
0
 10
3.0
 20
21.0
 30
0.0
 11
6.0
 21
21.0
 31
0.0
  0
LINE
  5
82
  8
0
 10
9.0
 20
21.0
 30
0.0
 11
10.0
 21
21.0
 31
0.0
  0
LINE
  5
83
  8
0
 10
41.0
 20
21.0
 30
0.0
 11
42.0
 21
21.0
 31
0.0
  0
LINE
  5
84
  8
0
 10
53.0
 20
21.0
 30
0.0
 11
54.0
 21
21.0
 31
0.0
  0
LINE
  5
85
  8
0
 10
60.0
 20
21.0
 30
0.0
 11
61.0
 21
21.0
 31
0.0
  0
LINE
  5
86
  8
0
 10
67.0
 20
21.0
 30
0.0
 11
68.0
 21
21.0
 31
0.0
  0
LINE
  5
87
  8
0
 10
75.0
 20
21.0
 30
0.0
 11
77.0
 21
21.0
 31
0.0
  0
LINE
  5
88
  8
0
 10
91.0
 20
21.0
 30
0.0
 11
92.0
 21
21.0
 31
0.0
  0
LINE
  5
89
  8
0
 10
94.0
 20
21.0
 30
0.0
 11
95.0
 21
21.0
 31
0.0
  0
LINE
  5
8A
  8
0
 10
54.0
 20
20.0
 30
0.0
 11
55.0
 21
20.0
 31
0.0
  0
LINE
  5
8B
  8
0
 10
68.0
 20
20.0
 30
0.0
 11
70.0
 21
20.0
 31
0.0
  0
LINE
  5
8C
  8
0
 10
77.0
 20
20.0
 30
0.0
 11
78.0
 21
20.0
 31
0.0
  0
LINE
  5
8D
  8
0
 10
86.0
 20
20.0
 30
0.0
 11
87.0
 21
20.0
 31
0.0
  0
LINE
  5
8E
  8
0
 10
88.0
 20
20.0
 30
0.0
 11
89.0
 21
20.0
 31
0.0
  0
LINE
  5
8F
  8
0
 10
6.0
 20
19.0
 30
0.0
 11
7.0
 21
19.0
 31
0.0
  0
LINE
  5
90
  8
0
 10
8.0
 20
19.0
 30
0.0
 11
9.0
 21
19.0
 31
0.0
  0
LINE
  5
91
  8
0
 10
41.0
 20
19.0
 30
0.0
 11
42.0
 21
19.0
 31
0.0
  0
LINE
  5
92
  8
0
 10
59.0
 20
19.0
 30
0.0
 11
60.0
 21
19.0
 31
0.0
  0
LINE
  5
93
  8
0
 10
70.0
 20
19.0
 30
0.0
 11
72.0
 21
19.0
 31
0.0
  0
LINE
  5
94
  8
0
 10
7.0
 20
18.0
 30
0.0
 11
8.0
 21
18.0
 31
0.0
  0
LINE
  5
95
  8
0
 10
39.0
 20
18.0
 30
0.0
 11
41.0
 21
18.0
 31
0.0
  0
LINE
  5
96
  8
0
 10
43.0
 20
18.0
 30
0.0
 11
45.0
 21
18.0
 31
0.0
  0
LINE
  5
97
  8
0
 10
72.0
 20
18.0
 30
0.0
 11
74.0
 21
18.0
 31
0.0
  0
LINE
  5
98
  8
0
 10
85.0
 20
18.0
 30
0.0
 11
86.0
 21
18.0
 31
0.0
  0
LINE
  5
99
  8
0
 10
88.0
 20
18.0
 30
0.0
 11
92.0
 21
18.0
 31
0.0
  0
LINE
  5
9A
  8
0
 10
95.0
 20
18.0
 30
0.0
 11
96.0
 21
18.0
 31
0.0
  0
LINE
  5
9B
  8
0
 10
3.0
 20
17.0
 30
0.0
 11
5.0
 21
17.0
 31
0.0
  0
LINE
  5
9C
  8
0
 10
42.0
 20
17.0
 30
0.0
 11
43.0
 21
17.0
 31
0.0
  0
LINE
  5
9D
  8
0
 10
45.0
 20
17.0
 30
0.0
 11
46.0
 21
17.0
 31
0.0
  0
LINE
  5
9E
  8
0
 10
87.0
 20
17.0
 30
0.0
 11
93.0
 21
17.0
 31
0.0
  0
LINE
  5
9F
  8
0
 10
39.0
 20
16.0
 30
0.0
 11
40.0
 21
16.0
 31
0.0
  0
LINE
  5
A0
  8
0
 10
66.0
 20
16.0
 30
0.0
 11
68.0
 21
16.0
 31
0.0
  0
LINE
  5
A1
  8
0
 10
93.0
 20
16.0
 30
0.0
 11
94.0
 21
16.0
 31
0.0
  0
LINE
  5
A2
  8
0
 10
96.0
 20
16.0
 30
0.0
 11
97.0
 21
16.0
 31
0.0
  0
LINE
  5
A3
  8
0
 10
103.0
 20
16.0
 30
0.0
 11
104.0
 21
16.0
 31
0.0
  0
LINE
  5
A4
  8
0
 10
114.0
 20
16.0
 30
0.0
 11
115.0
 21
16.0
 31
0.0
  0
LINE
  5
A5
  8
0
 10
117.0
 20
16.0
 30
0.0
 11
118.0
 21
16.0
 31
0.0
  0
LINE
  5
A6
  8
0
 10
3.0
 20
15.0
 30
0.0
 11
5.0
 21
15.0
 31
0.0
  0
LINE
  5
A7
  8
0
 10
40.0
 20
15.0
 30
0.0
 11
42.0
 21
15.0
 31
0.0
  0
LINE
  5
A8
  8
0
 10
46.0
 20
15.0
 30
0.0
 11
47.0
 21
15.0
 31
0.0
  0
LINE
  5
A9
  8
0
 10
65.0
 20
15.0
 30
0.0
 11
66.0
 21
15.0
 31
0.0
  0
LINE
  5
AA
  8
0
 10
68.0
 20
15.0
 30
0.0
 11
74.0
 21
15.0
 31
0.0
  0
LINE
  5
AB
  8
0
 10
84.0
 20
15.0
 30
0.0
 11
85.0
 21
15.0
 31
0.0
  0
LINE
  5
AC
  8
0
 10
86.0
 20
15.0
 30
0.0
 11
87.0
 21
15.0
 31
0.0
  0
LINE
  5
AD
  8
0
 10
100.0
 20
15.0
 30
0.0
 11
101.0
 21
15.0
 31
0.0
  0
LINE
  5
AE
  8
0
 10
104.0
 20
15.0
 30
0.0
 11
105.0
 21
15.0
 31
0.0
  0
LINE
  5
AF
  8
0
 10
118.0
 20
15.0
 30
0.0
 11
119.0
 21
15.0
 31
0.0
  0
LINE
  5
B0
  8
0
 10
2.0
 20
14.0
 30
0.0
 11
3.0
 21
14.0
 31
0.0
  0
LINE
  5
B1
  8
0
 10
47.0
 20
14.0
 30
0.0
 11
48.0
 21
14.0
 31
0.0
  0
LINE
  5
B2
  8
0
 10
65.0
 20
14.0
 30
0.0
 11
66.0
 21
14.0
 31
0.0
  0
LINE
  5
B3
  8
0
 10
77.0
 20
14.0
 30
0.0
 11
78.0
 21
14.0
 31
0.0
  0
LINE
  5
B4
  8
0
 10
101.0
 20
14.0
 30
0.0
 11
102.0
 21
14.0
 31
0.0
  0
LINE
  5
B5
  8
0
 10
105.0
 20
14.0
 30
0.0
 11
112.0
 21
14.0
 31
0.0
  0
LINE
  5
B6
  8
0
 10
115.0
 20
14.0
 30
0.0
 11
116.0
 21
14.0
 31
0.0
  0
LINE
  5
B7
  8
0
 10
119.0
 20
14.0
 30
0.0
 11
126.0
 21
14.0
 31
0.0
  0
LINE
  5
B8
  8
0
 10
0.0
 20
13.0
 30
0.0
 11
2.0
 21
13.0
 31
0.0
  0
LINE
  5
B9
  8
0
 10
66.0
 20
13.0
 30
0.0
 11
67.0
 21
13.0
 31
0.0
  0
LINE
  5
BA
  8
0
 10
76.0
 20
13.0
 30
0.0
 11
77.0
 21
13.0
 31
0.0
  0
LINE
  5
BB
  8
0
 10
85.0
 20
13.0
 30
0.0
 11
86.0
 21
13.0
 31
0.0
  0
LINE
  5
BC
  8
0
 10
94.0
 20
13.0
 30
0.0
 11
95.0
 21
13.0
 31
0.0
  0
LINE
  5
BD
  8
0
 10
97.0
 20
13.0
 30
0.0
 11
98.0
 21
13.0
 31
0.0
  0
LINE
  5
BE
  8
0
 10
102.0
 20
13.0
 30
0.0
 11
104.0
 21
13.0
 31
0.0
  0
LINE
  5
BF
  8
0
 10
110.0
 20
13.0
 30
0.0
 11
112.0
 21
13.0
 31
0.0
  0
LINE
  5
C0
  8
0
 10
116.0
 20
13.0
 30
0.0
 11
118.0
 21
13.0
 31
0.0
  0
LINE
  5
C1
  8
0
 10
124.0
 20
13.0
 30
0.0
 11
126.0
 21
13.0
 31
0.0
  0
LINE
  5
C2
  8
0
 10
55.0
 20
12.0
 30
0.0
 11
57.0
 21
12.0
 31
0.0
  0
LINE
  5
C3
  8
0
 10
67.0
 20
12.0
 30
0.0
 11
71.0
 21
12.0
 31
0.0
  0
LINE
  5
C4
  8
0
 10
72.0
 20
12.0
 30
0.0
 11
76.0
 21
12.0
 31
0.0
  0
LINE
  5
C5
  8
0
 10
84.0
 20
12.0
 30
0.0
 11
85.0
 21
12.0
 31
0.0
  0
LINE
  5
C6
  8
0
 10
95.0
 20
12.0
 30
0.0
 11
98.0
 21
12.0
 31
0.0
  0
LINE
  5
C7
  8
0
 10
104.0
 20
12.0
 30
0.0
 11
110.0
 21
12.0
 31
0.0
  0
LINE
  5
C8
  8
0
 10
118.0
 20
12.0
 30
0.0
 11
124.0
 21
12.0
 31
0.0
  0
LINE
  5
C9
  8
0
 10
22.0
 20
11.0
 30
0.0
 11
24.0
 21
11.0
 31
0.0
  0
LINE
  5
CA
  8
0
 10
46.0
 20
11.0
 30
0.0
 11
48.0
 21
11.0
 31
0.0
  0
LINE
  5
CB
  8
0
 10
57.0
 20
11.0
 30
0.0
 11
59.0
 21
11.0
 31
0.0
  0
LINE
  5
CC
  8
0
 10
71.0
 20
11.0
 30
0.0
 11
72.0
 21
11.0
 31
0.0
  0
LINE
  5
CD
  8
0
 10
21.0
 20
10.0
 30
0.0
 11
22.0
 21
10.0
 31
0.0
  0
LINE
  5
CE
  8
0
 10
24.0
 20
10.0
 30
0.0
 11
25.0
 21
10.0
 31
0.0
  0
LINE
  5
CF
  8
0
 10
45.0
 20
10.0
 30
0.0
 11
46.0
 21
10.0
 31
0.0
  0
LINE
  5
D0
  8
0
 10
0.0
 20
9.0
 30
0.0
 11
1.0
 21
9.0
 31
0.0
  0
LINE
  5
D1
  8
0
 10
20.0
 20
9.0
 30
0.0
 11
21.0
 21
9.0
 31
0.0
  0
LINE
  5
D2
  8
0
 10
43.0
 20
9.0
 30
0.0
 11
45.0
 21
9.0
 31
0.0
  0
LINE
  5
D3
  8
0
 10
1.0
 20
8.0
 30
0.0
 11
2.0
 21
8.0
 31
0.0
  0
LINE
  5
D4
  8
0
 10
6.0
 20
8.0
 30
0.0
 11
8.0
 21
8.0
 31
0.0
  0
LINE
  5
D5
  8
0
 10
18.0
 20
8.0
 30
0.0
 11
20.0
 21
8.0
 31
0.0
  0
LINE
  5
D6
  8
0
 10
25.0
 20
8.0
 30
0.0
 11
26.0
 21
8.0
 31
0.0
  0
LINE
  5
D7
  8
0
 10
30.0
 20
8.0
 30
0.0
 11
32.0
 21
8.0
 31
0.0
  0
LINE
  5
D8
  8
0
 10
42.0
 20
8.0
 30
0.0
 11
43.0
 21
8.0
 31
0.0
  0
LINE
  5
D9
  8
0
 10
5.0
 20
7.0
 30
0.0
 11
6.0
 21
7.0
 31
0.0
  0
LINE
  5
DA
  8
0
 10
18.0
 20
7.0
 30
0.0
 11
20.0
 21
7.0
 31
0.0
  0
LINE
  5
DB
  8
0
 10
26.0
 20
7.0
 30
0.0
 11
27.0
 21
7.0
 31
0.0
  0
LINE
  5
DC
  8
0
 10
29.0
 20
7.0
 30
0.0
 11
30.0
 21
7.0
 31
0.0
  0
LINE
  5
DD
  8
0
 10
42.0
 20
7.0
 30
0.0
 11
44.0
 21
7.0
 31
0.0
  0
LINE
  5
DE
  8
0
 10
54.0
 20
7.0
 30
0.0
 11
55.0
 21
7.0
 31
0.0
  0
LINE
  5
DF
  8
0
 10
56.0
 20
7.0
 30
0.0
 11
57.0
 21
7.0
 31
0.0
  0
LINE
  5
E0
  8
0
 10
58.0
 20
7.0
 30
0.0
 11
59.0
 21
7.0
 31
0.0
  0
LINE
  5
E1
  8
0
 10
60.0
 20
7.0
 30
0.0
 11
61.0
 21
7.0
 31
0.0
  0
LINE
  5
E2
  8
0
 10
62.0
 20
7.0
 30
0.0
 11
63.0
 21
7.0
 31
0.0
  0
LINE
  5
E3
  8
0
 10
64.0
 20
7.0
 30
0.0
 11
65.0
 21
7.0
 31
0.0
  0
LINE
  5
E4
  8
0
 10
69.0
 20
7.0
 30
0.0
 11
71.0
 21
7.0
 31
0.0
  0
LINE
  5
E5
  8
0
 10
75.0
 20
7.0
 30
0.0
 11
77.0
 21
7.0
 31
0.0
  0
LINE
  5
E6
  8
0
 10
78.0
 20
7.0
 30
0.0
 11
79.0
 21
7.0
 31
0.0
  0
LINE
  5
E7
  8
0
 10
80.0
 20
7.0
 30
0.0
 11
81.0
 21
7.0
 31
0.0
  0
LINE
  5
E8
  8
0
 10
82.0
 20
7.0
 30
0.0
 11
83.0
 21
7.0
 31
0.0
  0
LINE
  5
E9
  8
0
 10
84.0
 20
7.0
 30
0.0
 11
85.0
 21
7.0
 31
0.0
  0
LINE
  5
EA
  8
0
 10
86.0
 20
7.0
 30
0.0
 11
87.0
 21
7.0
 31
0.0
  0
LINE
  5
EB
  8
0
 10
88.0
 20
7.0
 30
0.0
 11
90.0
 21
7.0
 31
0.0
  0
LINE
  5
EC
  8
0
 10
91.0
 20
7.0
 30
0.0
 11
92.0
 21
7.0
 31
0.0
  0
LINE
  5
ED
  8
0
 10
93.0
 20
7.0
 30
0.0
 11
95.0
 21
7.0
 31
0.0
  0
LINE
  5
EE
  8
0
 10
96.0
 20
7.0
 30
0.0
 11
97.0
 21
7.0
 31
0.0
  0
LINE
  5
EF
  8
0
 10
98.0
 20
7.0
 30
0.0
 11
99.0
 21
7.0
 31
0.0
  0
LINE
  5
F0
  8
0
 10
100.0
 20
7.0
 30
0.0
 11
101.0
 21
7.0
 31
0.0
  0
LINE
  5
F1
  8
0
 10
106.0
 20
7.0
 30
0.0
 11
107.0
 21
7.0
 31
0.0
  0
LINE
  5
F2
  8
0
 10
109.0
 20
7.0
 30
0.0
 11
110.0
 21
7.0
 31
0.0
  0
LINE
  5
F3
  8
0
 10
111.0
 20
7.0
 30
0.0
 11
112.0
 21
7.0
 31
0.0
  0
LINE
  5
F4
  8
0
 10
114.0
 20
7.0
 30
0.0
 11
115.0
 21
7.0
 31
0.0
  0
LINE
  5
F5
  8
0
 10
116.0
 20
7.0
 30
0.0
 11
118.0
 21
7.0
 31
0.0
  0
LINE
  5
F6
  8
0
 10
119.0
 20
7.0
 30
0.0
 11
120.0
 21
7.0
 31
0.0
  0
LINE
  5
F7
  8
0
 10
121.0
 20
7.0
 30
0.0
 11
122.0
 21
7.0
 31
0.0
  0
LINE
  5
F8
  8
0
 10
123.0
 20
7.0
 30
0.0
 11
125.0
 21
7.0
 31
0.0
  0
LINE
  5
F9
  8
0
 10
2.0
 20
6.0
 30
0.0
 11
5.0
 21
6.0
 31
0.0
  0
LINE
  5
FA
  8
0
 10
20.0
 20
6.0
 30
0.0
 11
21.0
 21
6.0
 31
0.0
  0
LINE
  5
FB
  8
0
 10
27.0
 20
6.0
 30
0.0
 11
29.0
 21
6.0
 31
0.0
  0
LINE
  5
FC
  8
0
 10
44.0
 20
6.0
 30
0.0
 11
45.0
 21
6.0
 31
0.0
  0
LINE
  5
FD
  8
0
 10
53.0
 20
6.0
 30
0.0
 11
55.0
 21
6.0
 31
0.0
  0
LINE
  5
FE
  8
0
 10
58.0
 20
6.0
 30
0.0
 11
59.0
 21
6.0
 31
0.0
  0
LINE
  5
FF
  8
0
 10
64.0
 20
6.0
 30
0.0
 11
66.0
 21
6.0
 31
0.0
  0
LINE
  5
100
  8
0
 10
74.0
 20
6.0
 30
0.0
 11
77.0
 21
6.0
 31
0.0
  0
LINE
  5
101
  8
0
 10
80.0
 20
6.0
 30
0.0
 11
81.0
 21
6.0
 31
0.0
  0
LINE
  5
102
  8
0
 10
87.0
 20
6.0
 30
0.0
 11
88.0
 21
6.0
 31
0.0
  0
LINE
  5
103
  8
0
 10
101.0
 20
6.0
 30
0.0
 11
103.0
 21
6.0
 31
0.0
  0
LINE
  5
104
  8
0
 10
105.0
 20
6.0
 30
0.0
 11
107.0
 21
6.0
 31
0.0
  0
LINE
  5
105
  8
0
 10
111.0
 20
6.0
 30
0.0
 11
112.0
 21
6.0
 31
0.0
  0
LINE
  5
106
  8
0
 10
113.0
 20
6.0
 30
0.0
 11
114.0
 21
6.0
 31
0.0
  0
LINE
  5
107
  8
0
 10
115.0
 20
6.0
 30
0.0
 11
116.0
 21
6.0
 31
0.0
  0
LINE
  5
108
  8
0
 10
119.0
 20
6.0
 30
0.0
 11
120.0
 21
6.0
 31
0.0
  0
LINE
  5
109
  8
0
 10
122.0
 20
6.0
 30
0.0
 11
123.0
 21
6.0
 31
0.0
  0
LINE
  5
10A
  8
0
 10
125.0
 20
6.0
 30
0.0
 11
126.0
 21
6.0
 31
0.0
  0
LINE
  5
10B
  8
0
 10
6.0
 20
5.0
 30
0.0
 11
8.0
 21
5.0
 31
0.0
  0
LINE
  5
10C
  8
0
 10
15.0
 20
5.0
 30
0.0
 11
17.0
 21
5.0
 31
0.0
  0
LINE
  5
10D
  8
0
 10
30.0
 20
5.0
 30
0.0
 11
32.0
 21
5.0
 31
0.0
  0
LINE
  5
10E
  8
0
 10
39.0
 20
5.0
 30
0.0
 11
41.0
 21
5.0
 31
0.0
  0
LINE
  5
10F
  8
0
 10
55.0
 20
5.0
 30
0.0
 11
56.0
 21
5.0
 31
0.0
  0
LINE
  5
110
  8
0
 10
58.0
 20
5.0
 30
0.0
 11
59.0
 21
5.0
 31
0.0
  0
LINE
  5
111
  8
0
 10
63.0
 20
5.0
 30
0.0
 11
64.0
 21
5.0
 31
0.0
  0
LINE
  5
112
  8
0
 10
69.0
 20
5.0
 30
0.0
 11
70.0
 21
5.0
 31
0.0
  0
LINE
  5
113
  8
0
 10
74.0
 20
5.0
 30
0.0
 11
75.0
 21
5.0
 31
0.0
  0
LINE
  5
114
  8
0
 10
80.0
 20
5.0
 30
0.0
 11
81.0
 21
5.0
 31
0.0
  0
LINE
  5
115
  8
0
 10
82.0
 20
5.0
 30
0.0
 11
84.0
 21
5.0
 31
0.0
  0
LINE
  5
116
  8
0
 10
87.0
 20
5.0
 30
0.0
 11
89.0
 21
5.0
 31
0.0
  0
LINE
  5
117
  8
0
 10
93.0
 20
5.0
 30
0.0
 11
95.0
 21
5.0
 31
0.0
  0
LINE
  5
118
  8
0
 10
101.0
 20
5.0
 30
0.0
 11
103.0
 21
5.0
 31
0.0
  0
LINE
  5
119
  8
0
 10
105.0
 20
5.0
 30
0.0
 11
106.0
 21
5.0
 31
0.0
  0
LINE
  5
11A
  8
0
 10
111.0
 20
5.0
 30
0.0
 11
112.0
 21
5.0
 31
0.0
  0
LINE
  5
11B
  8
0
 10
114.0
 20
5.0
 30
0.0
 11
115.0
 21
5.0
 31
0.0
  0
LINE
  5
11C
  8
0
 10
116.0
 20
5.0
 30
0.0
 11
117.0
 21
5.0
 31
0.0
  0
LINE
  5
11D
  8
0
 10
119.0
 20
5.0
 30
0.0
 11
120.0
 21
5.0
 31
0.0
  0
LINE
  5
11E
  8
0
 10
122.0
 20
5.0
 30
0.0
 11
124.0
 21
5.0
 31
0.0
  0
LINE
  5
11F
  8
0
 10
125.0
 20
5.0
 30
0.0
 11
127.0
 21
5.0
 31
0.0
  0
LINE
  5
120
  8
0
 10
41.0
 20
4.0
 30
0.0
 11
42.0
 21
4.0
 31
0.0
  0
LINE
  5
121
  8
0
 10
53.0
 20
4.0
 30
0.0
 11
54.0
 21
4.0
 31
0.0
  0
LINE
  5
122
  8
0
 10
55.0
 20
4.0
 30
0.0
 11
57.0
 21
4.0
 31
0.0
  0
LINE
  5
123
  8
0
 10
58.0
 20
4.0
 30
0.0
 11
59.0
 21
4.0
 31
0.0
  0
LINE
  5
124
  8
0
 10
60.0
 20
4.0
 30
0.0
 11
61.0
 21
4.0
 31
0.0
  0
LINE
  5
125
  8
0
 10
62.0
 20
4.0
 30
0.0
 11
64.0
 21
4.0
 31
0.0
  0
LINE
  5
126
  8
0
 10
65.0
 20
4.0
 30
0.0
 11
66.0
 21
4.0
 31
0.0
  0
LINE
  5
127
  8
0
 10
70.0
 20
4.0
 30
0.0
 11
71.0
 21
4.0
 31
0.0
  0
LINE
  5
128
  8
0
 10
78.0
 20
4.0
 30
0.0
 11
79.0
 21
4.0
 31
0.0
  0
LINE
  5
129
  8
0
 10
80.0
 20
4.0
 30
0.0
 11
81.0
 21
4.0
 31
0.0
  0
LINE
  5
12A
  8
0
 10
83.0
 20
4.0
 30
0.0
 11
85.0
 21
4.0
 31
0.0
  0
LINE
  5
12B
  8
0
 10
86.0
 20
4.0
 30
0.0
 11
87.0
 21
4.0
 31
0.0
  0
LINE
  5
12C
  8
0
 10
89.0
 20
4.0
 30
0.0
 11
90.0
 21
4.0
 31
0.0
  0
LINE
  5
12D
  8
0
 10
91.0
 20
4.0
 30
0.0
 11
92.0
 21
4.0
 31
0.0
  0
LINE
  5
12E
  8
0
 10
96.0
 20
4.0
 30
0.0
 11
97.0
 21
4.0
 31
0.0
  0
LINE
  5
12F
  8
0
 10
98.0
 20
4.0
 30
0.0
 11
99.0
 21
4.0
 31
0.0
  0
LINE
  5
130
  8
0
 10
100.0
 20
4.0
 30
0.0
 11
101.0
 21
4.0
 31
0.0
  0
LINE
  5
131
  8
0
 10
109.0
 20
4.0
 30
0.0
 11
110.0
 21
4.0
 31
0.0
  0
LINE
  5
132
  8
0
 10
111.0
 20
4.0
 30
0.0
 11
112.0
 21
4.0
 31
0.0
  0
LINE
  5
133
  8
0
 10
113.0
 20
4.0
 30
0.0
 11
114.0
 21
4.0
 31
0.0
  0
LINE
  5
134
  8
0
 10
115.0
 20
4.0
 30
0.0
 11
116.0
 21
4.0
 31
0.0
  0
LINE
  5
135
  8
0
 10
117.0
 20
4.0
 30
0.0
 11
118.0
 21
4.0
 31
0.0
  0
LINE
  5
136
  8
0
 10
119.0
 20
4.0
 30
0.0
 11
120.0
 21
4.0
 31
0.0
  0
LINE
  5
137
  8
0
 10
121.0
 20
4.0
 30
0.0
 11
122.0
 21
4.0
 31
0.0
  0
LINE
  5
138
  8
0
 10
124.0
 20
4.0
 30
0.0
 11
125.0
 21
4.0
 31
0.0
  0
LINE
  5
139
  8
0
 10
126.0
 20
4.0
 30
0.0
 11
127.0
 21
4.0
 31
0.0
  0
LINE
  5
13A
  8
0
 10
14.0
 20
3.0
 30
0.0
 11
15.0
 21
3.0
 31
0.0
  0
LINE
  5
13B
  8
0
 10
17.0
 20
3.0
 30
0.0
 11
18.0
 21
3.0
 31
0.0
  0
LINE
  5
13C
  8
0
 10
20.0
 20
3.0
 30
0.0
 11
21.0
 21
3.0
 31
0.0
  0
LINE
  5
13D
  8
0
 10
30.0
 20
3.0
 30
0.0
 11
31.0
 21
3.0
 31
0.0
  0
LINE
  5
13E
  8
0
 10
38.0
 20
3.0
 30
0.0
 11
39.0
 21
3.0
 31
0.0
  0
LINE
  5
13F
  8
0
 10
42.0
 20
3.0
 30
0.0
 11
45.0
 21
3.0
 31
0.0
  0
LINE
  5
140
  8
0
 10
6.0
 20
2.0
 30
0.0
 11
8.0
 21
2.0
 31
0.0
  0
LINE
  5
141
  8
0
 10
13.0
 20
2.0
 30
0.0
 11
14.0
 21
2.0
 31
0.0
  0
LINE
  5
142
  8
0
 10
18.0
 20
2.0
 30
0.0
 11
20.0
 21
2.0
 31
0.0
  0
LINE
  5
143
  8
0
 10
31.0
 20
2.0
 30
0.0
 11
32.0
 21
2.0
 31
0.0
  0
LINE
  5
144
  8
0
 10
37.0
 20
2.0
 30
0.0
 11
38.0
 21
2.0
 31
0.0
  0
LINE
  5
145
  8
0
 10
8.0
 20
1.0
 30
0.0
 11
9.0
 21
1.0
 31
0.0
  0
LINE
  5
146
  8
0
 10
32.0
 20
1.0
 30
0.0
 11
34.0
 21
1.0
 31
0.0
  0
LINE
  5
147
  8
0
 10
9.0
 20
0.0
 30
0.0
 11
13.0
 21
0.0
 31
0.0
  0
LINE
  5
148
  8
0
 10
34.0
 20
0.0
 30
0.0
 11
37.0
 21
0.0
 31
0.0
  0
LINE
  5
149
  8
0
 10
22.0
 20
10.0
 30
0.0
 11
22.0
 21
11.0
 31
0.0
  0
LINE
  5
14A
  8
0
 10
22.0
 20
35.0
 30
0.0
 11
22.0
 21
36.0
 31
0.0
  0
LINE
  5
14B
  8
0
 10
25.0
 20
8.0
 30
0.0
 11
25.0
 21
10.0
 31
0.0
  0
LINE
  5
14C
  8
0
 10
25.0
 20
34.0
 30
0.0
 11
25.0
 21
36.0
 31
0.0
  0
LINE
  5
14D
  8
0
 10
20.0
 20
2.0
 30
0.0
 11
20.0
 21
3.0
 31
0.0
  0
LINE
  5
14E
  8
0
 10
20.0
 20
6.0
 30
0.0
 11
20.0
 21
7.0
 31
0.0
  0
LINE
  5
14F
  8
0
 10
20.0
 20
8.0
 30
0.0
 11
20.0
 21
9.0
 31
0.0
  0
LINE
  5
150
  8
0
 10
20.0
 20
27.0
 30
0.0
 11
20.0
 21
30.0
 31
0.0
  0
LINE
  5
151
  8
0
 10
20.0
 20
34.0
 30
0.0
 11
20.0
 21
35.0
 31
0.0
  0
LINE
  5
152
  8
0
 10
19.0
 20
30.0
 30
0.0
 11
19.0
 21
31.0
 31
0.0
  0
LINE
  5
153
  8
0
 10
19.0
 20
33.0
 30
0.0
 11
19.0
 21
34.0
 31
0.0
  0
LINE
  5
154
  8
0
 10
26.0
 20
7.0
 30
0.0
 11
26.0
 21
8.0
 31
0.0
  0
LINE
  5
155
  8
0
 10
26.0
 20
33.0
 30
0.0
 11
26.0
 21
34.0
 31
0.0
  0
LINE
  5
156
  8
0
 10
18.0
 20
2.0
 30
0.0
 11
18.0
 21
3.0
 31
0.0
  0
LINE
  5
157
  8
0
 10
18.0
 20
7.0
 30
0.0
 11
18.0
 21
8.0
 31
0.0
  0
LINE
  5
158
  8
0
 10
18.0
 20
27.0
 30
0.0
 11
18.0
 21
28.0
 31
0.0
  0
LINE
  5
159
  8
0
 10
18.0
 20
31.0
 30
0.0
 11
18.0
 21
33.0
 31
0.0
  0
LINE
  5
15A
  8
0
 10
27.0
 20
6.0
 30
0.0
 11
27.0
 21
7.0
 31
0.0
  0
LINE
  5
15B
  8
0
 10
27.0
 20
31.0
 30
0.0
 11
27.0
 21
33.0
 31
0.0
  0
LINE
  5
15C
  8
0
 10
30.0
 20
3.0
 30
0.0
 11
30.0
 21
5.0
 31
0.0
  0
LINE
  5
15D
  8
0
 10
30.0
 20
7.0
 30
0.0
 11
30.0
 21
8.0
 31
0.0
  0
LINE
  5
15E
  8
0
 10
30.0
 20
32.0
 30
0.0
 11
30.0
 21
33.0
 31
0.0
  0
LINE
  5
15F
  8
0
 10
33.0
 20
26.0
 30
0.0
 11
33.0
 21
27.0
 31
0.0
  0
LINE
  5
160
  8
0
 10
33.0
 20
30.0
 30
0.0
 11
33.0
 21
33.0
 31
0.0
  0
LINE
  5
161
  8
0
 10
29.0
 20
6.0
 30
0.0
 11
29.0
 21
7.0
 31
0.0
  0
LINE
  5
162
  8
0
 10
29.0
 20
31.0
 30
0.0
 11
29.0
 21
32.0
 31
0.0
  0
LINE
  5
163
  8
0
 10
15.0
 20
3.0
 30
0.0
 11
15.0
 21
5.0
 31
0.0
  0
LINE
  5
164
  8
0
 10
15.0
 20
29.0
 30
0.0
 11
15.0
 21
30.0
 31
0.0
  0
LINE
  5
165
  8
0
 10
17.0
 20
3.0
 30
0.0
 11
17.0
 21
5.0
 31
0.0
  0
LINE
  5
166
  8
0
 10
17.0
 20
28.0
 30
0.0
 11
17.0
 21
30.0
 31
0.0
  0
LINE
  5
167
  8
0
 10
32.0
 20
1.0
 30
0.0
 11
32.0
 21
2.0
 31
0.0
  0
LINE
  5
168
  8
0
 10
32.0
 20
5.0
 30
0.0
 11
32.0
 21
8.0
 31
0.0
  0
LINE
  5
169
  8
0
 10
32.0
 20
29.0
 30
0.0
 11
32.0
 21
30.0
 31
0.0
  0
LINE
  5
16A
  8
0
 10
14.0
 20
2.0
 30
0.0
 11
14.0
 21
3.0
 31
0.0
  0
LINE
  5
16B
  8
0
 10
14.0
 20
28.0
 30
0.0
 11
14.0
 21
29.0
 31
0.0
  0
LINE
  5
16C
  8
0
 10
31.0
 20
2.0
 30
0.0
 11
31.0
 21
3.0
 31
0.0
  0
LINE
  5
16D
  8
0
 10
31.0
 20
27.0
 30
0.0
 11
31.0
 21
29.0
 31
0.0
  0
LINE
  5
16E
  8
0
 10
48.0
 20
11.0
 30
0.0
 11
48.0
 21
14.0
 31
0.0
  0
LINE
  5
16F
  8
0
 10
48.0
 20
27.0
 30
0.0
 11
48.0
 21
29.0
 31
0.0
  0
LINE
  5
170
  8
0
 10
53.0
 20
4.0
 30
0.0
 11
53.0
 21
6.0
 31
0.0
  0
LINE
  5
171
  8
0
 10
53.0
 20
21.0
 30
0.0
 11
53.0
 21
23.0
 31
0.0
  0
LINE
  5
172
  8
0
 10
53.0
 20
28.0
 30
0.0
 11
53.0
 21
29.0
 31
0.0
  0
LINE
  5
173
  8
0
 10
62.0
 20
4.0
 30
0.0
 11
62.0
 21
7.0
 31
0.0
  0
LINE
  5
174
  8
0
 10
62.0
 20
22.0
 30
0.0
 11
62.0
 21
24.0
 31
0.0
  0
LINE
  5
175
  8
0
 10
62.0
 20
28.0
 30
0.0
 11
62.0
 21
29.0
 31
0.0
  0
LINE
  5
176
  8
0
 10
66.0
 20
4.0
 30
0.0
 11
66.0
 21
6.0
 31
0.0
  0
LINE
  5
177
  8
0
 10
66.0
 20
13.0
 30
0.0
 11
66.0
 21
14.0
 31
0.0
  0
LINE
  5
178
  8
0
 10
66.0
 20
15.0
 30
0.0
 11
66.0
 21
16.0
 31
0.0
  0
LINE
  5
179
  8
0
 10
66.0
 20
22.0
 30
0.0
 11
66.0
 21
24.0
 31
0.0
  0
LINE
  5
17A
  8
0
 10
66.0
 20
25.0
 30
0.0
 11
66.0
 21
27.0
 31
0.0
  0
LINE
  5
17B
  8
0
 10
66.0
 20
28.0
 30
0.0
 11
66.0
 21
29.0
 31
0.0
  0
LINE
  5
17C
  8
0
 10
68.0
 20
15.0
 30
0.0
 11
68.0
 21
16.0
 31
0.0
  0
LINE
  5
17D
  8
0
 10
68.0
 20
20.0
 30
0.0
 11
68.0
 21
21.0
 31
0.0
  0
LINE
  5
17E
  8
0
 10
68.0
 20
28.0
 30
0.0
 11
68.0
 21
29.0
 31
0.0
  0
LINE
  5
17F
  8
0
 10
76.0
 20
12.0
 30
0.0
 11
76.0
 21
13.0
 31
0.0
  0
LINE
  5
180
  8
0
 10
76.0
 20
28.0
 30
0.0
 11
76.0
 21
29.0
 31
0.0
  0
LINE
  5
181
  8
0
 10
13.0
 20
0.0
 30
0.0
 11
13.0
 21
2.0
 31
0.0
  0
LINE
  5
182
  8
0
 10
13.0
 20
26.0
 30
0.0
 11
13.0
 21
28.0
 31
0.0
  0
LINE
  5
183
  8
0
 10
55.0
 20
4.0
 30
0.0
 11
55.0
 21
5.0
 31
0.0
  0
LINE
  5
184
  8
0
 10
55.0
 20
6.0
 30
0.0
 11
55.0
 21
7.0
 31
0.0
  0
LINE
  5
185
  8
0
 10
55.0
 20
12.0
 30
0.0
 11
55.0
 21
20.0
 31
0.0
  0
LINE
  5
186
  8
0
 10
55.0
 20
26.0
 30
0.0
 11
55.0
 21
28.0
 31
0.0
  0
LINE
  5
187
  8
0
 10
61.0
 20
4.0
 30
0.0
 11
61.0
 21
7.0
 31
0.0
  0
LINE
  5
188
  8
0
 10
61.0
 20
21.0
 30
0.0
 11
61.0
 21
22.0
 31
0.0
  0
LINE
  5
189
  8
0
 10
61.0
 20
26.0
 30
0.0
 11
61.0
 21
28.0
 31
0.0
  0
LINE
  5
18A
  8
0
 10
65.0
 20
4.0
 30
0.0
 11
65.0
 21
7.0
 31
0.0
  0
LINE
  5
18B
  8
0
 10
65.0
 20
14.0
 30
0.0
 11
65.0
 21
15.0
 31
0.0
  0
LINE
  5
18C
  8
0
 10
65.0
 20
24.0
 30
0.0
 11
65.0
 21
25.0
 31
0.0
  0
LINE
  5
18D
  8
0
 10
65.0
 20
27.0
 30
0.0
 11
65.0
 21
28.0
 31
0.0
  0
LINE
  5
18E
  8
0
 10
67.0
 20
12.0
 30
0.0
 11
67.0
 21
13.0
 31
0.0
  0
LINE
  5
18F
  8
0
 10
67.0
 20
21.0
 30
0.0
 11
67.0
 21
22.0
 31
0.0
  0
LINE
  5
190
  8
0
 10
67.0
 20
27.0
 30
0.0
 11
67.0
 21
28.0
 31
0.0
  0
LINE
  5
191
  8
0
 10
77.0
 20
6.0
 30
0.0
 11
77.0
 21
7.0
 31
0.0
  0
LINE
  5
192
  8
0
 10
77.0
 20
13.0
 30
0.0
 11
77.0
 21
14.0
 31
0.0
  0
LINE
  5
193
  8
0
 10
77.0
 20
20.0
 30
0.0
 11
77.0
 21
21.0
 31
0.0
  0
LINE
  5
194
  8
0
 10
77.0
 20
24.0
 30
0.0
 11
77.0
 21
28.0
 31
0.0
  0
LINE
  5
195
  8
0
 10
105.0
 20
5.0
 30
0.0
 11
105.0
 21
6.0
 31
0.0
  0
LINE
  5
196
  8
0
 10
105.0
 20
14.0
 30
0.0
 11
105.0
 21
15.0
 31
0.0
  0
LINE
  5
197
  8
0
 10
105.0
 20
27.0
 30
0.0
 11
105.0
 21
28.0
 31
0.0
  0
LINE
  5
198
  8
0
 10
109.0
 20
4.0
 30
0.0
 11
109.0
 21
7.0
 31
0.0
  0
LINE
  5
199
  8
0
 10
109.0
 20
27.0
 30
0.0
 11
109.0
 21
28.0
 31
0.0
  0
LINE
  5
19A
  8
0
 10
119.0
 20
4.0
 30
0.0
 11
119.0
 21
5.0
 31
0.0
  0
LINE
  5
19B
  8
0
 10
119.0
 20
6.0
 30
0.0
 11
119.0
 21
7.0
 31
0.0
  0
LINE
  5
19C
  8
0
 10
119.0
 20
14.0
 30
0.0
 11
119.0
 21
15.0
 31
0.0
  0
LINE
  5
19D
  8
0
 10
119.0
 20
25.0
 30
0.0
 11
119.0
 21
26.0
 31
0.0
  0
LINE
  5
19E
  8
0
 10
119.0
 20
27.0
 30
0.0
 11
119.0
 21
28.0
 31
0.0
  0
LINE
  5
19F
  8
0
 10
123.0
 20
6.0
 30
0.0
 11
123.0
 21
7.0
 31
0.0
  0
LINE
  5
1A0
  8
0
 10
123.0
 20
27.0
 30
0.0
 11
123.0
 21
28.0
 31
0.0
  0
LINE
  5
1A1
  8
0
 10
50.0
 20
26.0
 30
0.0
 11
50.0
 21
27.0
 31
0.0
  0
LINE
  5
1A2
  8
0
 10
64.0
 20
4.0
 30
0.0
 11
64.0
 21
5.0
 31
0.0
  0
LINE
  5
1A3
  8
0
 10
64.0
 20
6.0
 30
0.0
 11
64.0
 21
7.0
 31
0.0
  0
LINE
  5
1A4
  8
0
 10
64.0
 20
25.0
 30
0.0
 11
64.0
 21
27.0
 31
0.0
  0
LINE
  5
1A5
  8
0
 10
71.0
 20
4.0
 30
0.0
 11
71.0
 21
7.0
 31
0.0
  0
LINE
  5
1A6
  8
0
 10
71.0
 20
11.0
 30
0.0
 11
71.0
 21
12.0
 31
0.0
  0
LINE
  5
1A7
  8
0
 10
71.0
 20
23.0
 30
0.0
 11
71.0
 21
24.0
 31
0.0
  0
LINE
  5
1A8
  8
0
 10
71.0
 20
26.0
 30
0.0
 11
71.0
 21
27.0
 31
0.0
  0
LINE
  5
1A9
  8
0
 10
73.0
 20
22.0
 30
0.0
 11
73.0
 21
23.0
 31
0.0
  0
LINE
  5
1AA
  8
0
 10
73.0
 20
26.0
 30
0.0
 11
73.0
 21
27.0
 31
0.0
  0
LINE
  5
1AB
  8
0
 10
89.0
 20
4.0
 30
0.0
 11
89.0
 21
5.0
 31
0.0
  0
LINE
  5
1AC
  8
0
 10
89.0
 20
20.0
 30
0.0
 11
89.0
 21
22.0
 31
0.0
  0
LINE
  5
1AD
  8
0
 10
89.0
 20
25.0
 30
0.0
 11
89.0
 21
27.0
 31
0.0
  0
LINE
  5
1AE
  8
0
 10
92.0
 20
4.0
 30
0.0
 11
92.0
 21
7.0
 31
0.0
  0
LINE
  5
1AF
  8
0
 10
92.0
 20
18.0
 30
0.0
 11
92.0
 21
21.0
 31
0.0
  0
LINE
  5
1B0
  8
0
 10
92.0
 20
26.0
 30
0.0
 11
92.0
 21
27.0
 31
0.0
  0
LINE
  5
1B1
  8
0
 10
102.0
 20
13.0
 30
0.0
 11
102.0
 21
14.0
 31
0.0
  0
LINE
  5
1B2
  8
0
 10
102.0
 20
26.0
 30
0.0
 11
102.0
 21
27.0
 31
0.0
  0
LINE
  5
1B3
  8
0
 10
111.0
 20
4.0
 30
0.0
 11
111.0
 21
5.0
 31
0.0
  0
LINE
  5
1B4
  8
0
 10
111.0
 20
6.0
 30
0.0
 11
111.0
 21
7.0
 31
0.0
  0
LINE
  5
1B5
  8
0
 10
111.0
 20
24.0
 30
0.0
 11
111.0
 21
27.0
 31
0.0
  0
LINE
  5
1B6
  8
0
 10
116.0
 20
4.0
 30
0.0
 11
116.0
 21
5.0
 31
0.0
  0
LINE
  5
1B7
  8
0
 10
116.0
 20
6.0
 30
0.0
 11
116.0
 21
7.0
 31
0.0
  0
LINE
  5
1B8
  8
0
 10
116.0
 20
13.0
 30
0.0
 11
116.0
 21
14.0
 31
0.0
  0
LINE
  5
1B9
  8
0
 10
116.0
 20
26.0
 30
0.0
 11
116.0
 21
27.0
 31
0.0
  0
LINE
  5
1BA
  8
0
 10
126.0
 20
4.0
 30
0.0
 11
126.0
 21
6.0
 31
0.0
  0
LINE
  5
1BB
  8
0
 10
126.0
 20
13.0
 30
0.0
 11
126.0
 21
14.0
 31
0.0
  0
LINE
  5
1BC
  8
0
 10
126.0
 20
24.0
 30
0.0
 11
126.0
 21
27.0
 31
0.0
  0
LINE
  5
1BD
  8
0
 10
12.0
 20
24.0
 30
0.0
 11
12.0
 21
26.0
 31
0.0
  0
LINE
  5
1BE
  8
0
 10
34.0
 20
0.0
 30
0.0
 11
34.0
 21
1.0
 31
0.0
  0
LINE
  5
1BF
  8
0
 10
34.0
 20
25.0
 30
0.0
 11
34.0
 21
26.0
 31
0.0
  0
LINE
  5
1C0
  8
0
 10
51.0
 20
25.0
 30
0.0
 11
51.0
 21
26.0
 31
0.0
  0
LINE
  5
1C1
  8
0
 10
56.0
 20
5.0
 30
0.0
 11
56.0
 21
7.0
 31
0.0
  0
LINE
  5
1C2
  8
0
 10
56.0
 20
25.0
 30
0.0
 11
56.0
 21
26.0
 31
0.0
  0
LINE
  5
1C3
  8
0
 10
60.0
 20
4.0
 30
0.0
 11
60.0
 21
7.0
 31
0.0
  0
LINE
  5
1C4
  8
0
 10
60.0
 20
19.0
 30
0.0
 11
60.0
 21
21.0
 31
0.0
  0
LINE
  5
1C5
  8
0
 10
60.0
 20
25.0
 30
0.0
 11
60.0
 21
26.0
 31
0.0
  0
LINE
  5
1C6
  8
0
 10
70.0
 20
4.0
 30
0.0
 11
70.0
 21
5.0
 31
0.0
  0
LINE
  5
1C7
  8
0
 10
70.0
 20
19.0
 30
0.0
 11
70.0
 21
20.0
 31
0.0
  0
LINE
  5
1C8
  8
0
 10
70.0
 20
24.0
 30
0.0
 11
70.0
 21
26.0
 31
0.0
  0
LINE
  5
1C9
  8
0
 10
75.0
 20
5.0
 30
0.0
 11
75.0
 21
7.0
 31
0.0
  0
LINE
  5
1CA
  8
0
 10
75.0
 20
21.0
 30
0.0
 11
75.0
 21
22.0
 31
0.0
  0
LINE
  5
1CB
  8
0
 10
75.0
 20
24.0
 30
0.0
 11
75.0
 21
26.0
 31
0.0
  0
LINE
  5
1CC
  8
0
 10
93.0
 20
5.0
 30
0.0
 11
93.0
 21
7.0
 31
0.0
  0
LINE
  5
1CD
  8
0
 10
93.0
 20
16.0
 30
0.0
 11
93.0
 21
17.0
 31
0.0
  0
LINE
  5
1CE
  8
0
 10
93.0
 20
23.0
 30
0.0
 11
93.0
 21
26.0
 31
0.0
  0
LINE
  5
1CF
  8
0
 10
101.0
 20
4.0
 30
0.0
 11
101.0
 21
5.0
 31
0.0
  0
LINE
  5
1D0
  8
0
 10
101.0
 20
6.0
 30
0.0
 11
101.0
 21
7.0
 31
0.0
  0
LINE
  5
1D1
  8
0
 10
101.0
 20
14.0
 30
0.0
 11
101.0
 21
15.0
 31
0.0
  0
LINE
  5
1D2
  8
0
 10
101.0
 20
25.0
 30
0.0
 11
101.0
 21
26.0
 31
0.0
  0
LINE
  5
1D3
  8
0
 10
104.0
 20
12.0
 30
0.0
 11
104.0
 21
13.0
 31
0.0
  0
LINE
  5
1D4
  8
0
 10
104.0
 20
15.0
 30
0.0
 11
104.0
 21
16.0
 31
0.0
  0
LINE
  5
1D5
  8
0
 10
104.0
 20
24.0
 30
0.0
 11
104.0
 21
26.0
 31
0.0
  0
LINE
  5
1D6
  8
0
 10
110.0
 20
4.0
 30
0.0
 11
110.0
 21
7.0
 31
0.0
  0
LINE
  5
1D7
  8
0
 10
110.0
 20
12.0
 30
0.0
 11
110.0
 21
13.0
 31
0.0
  0
LINE
  5
1D8
  8
0
 10
110.0
 20
24.0
 30
0.0
 11
110.0
 21
26.0
 31
0.0
  0
LINE
  5
1D9
  8
0
 10
115.0
 20
4.0
 30
0.0
 11
115.0
 21
5.0
 31
0.0
  0
LINE
  5
1DA
  8
0
 10
115.0
 20
6.0
 30
0.0
 11
115.0
 21
7.0
 31
0.0
  0
LINE
  5
1DB
  8
0
 10
115.0
 20
14.0
 30
0.0
 11
115.0
 21
16.0
 31
0.0
  0
LINE
  5
1DC
  8
0
 10
115.0
 20
24.0
 30
0.0
 11
115.0
 21
26.0
 31
0.0
  0
LINE
  5
1DD
  8
0
 10
124.0
 20
4.0
 30
0.0
 11
124.0
 21
5.0
 31
0.0
  0
LINE
  5
1DE
  8
0
 10
124.0
 20
12.0
 30
0.0
 11
124.0
 21
13.0
 31
0.0
  0
LINE
  5
1DF
  8
0
 10
124.0
 20
25.0
 30
0.0
 11
124.0
 21
26.0
 31
0.0
  0
LINE
  5
1E0
  8
0
 10
36.0
 20
24.0
 30
0.0
 11
36.0
 21
25.0
 31
0.0
  0
LINE
  5
1E1
  8
0
 10
52.0
 20
23.0
 30
0.0
 11
52.0
 21
25.0
 31
0.0
  0
LINE
  5
1E2
  8
0
 10
57.0
 20
4.0
 30
0.0
 11
57.0
 21
7.0
 31
0.0
  0
LINE
  5
1E3
  8
0
 10
57.0
 20
11.0
 30
0.0
 11
57.0
 21
12.0
 31
0.0
  0
LINE
  5
1E4
  8
0
 10
57.0
 20
23.0
 30
0.0
 11
57.0
 21
25.0
 31
0.0
  0
LINE
  5
1E5
  8
0
 10
59.0
 20
4.0
 30
0.0
 11
59.0
 21
5.0
 31
0.0
  0
LINE
  5
1E6
  8
0
 10
59.0
 20
6.0
 30
0.0
 11
59.0
 21
7.0
 31
0.0
  0
LINE
  5
1E7
  8
0
 10
59.0
 20
11.0
 30
0.0
 11
59.0
 21
19.0
 31
0.0
  0
LINE
  5
1E8
  8
0
 10
59.0
 20
23.0
 30
0.0
 11
59.0
 21
25.0
 31
0.0
  0
LINE
  5
1E9
  8
0
 10
63.0
 20
5.0
 30
0.0
 11
63.0
 21
7.0
 31
0.0
  0
LINE
  5
1EA
  8
0
 10
63.0
 20
24.0
 30
0.0
 11
63.0
 21
25.0
 31
0.0
  0
LINE
  5
1EB
  8
0
 10
88.0
 20
6.0
 30
0.0
 11
88.0
 21
7.0
 31
0.0
  0
LINE
  5
1EC
  8
0
 10
88.0
 20
18.0
 30
0.0
 11
88.0
 21
20.0
 31
0.0
  0
LINE
  5
1ED
  8
0
 10
88.0
 20
22.0
 30
0.0
 11
88.0
 21
25.0
 31
0.0
  0
LINE
  5
1EE
  8
0
 10
100.0
 20
4.0
 30
0.0
 11
100.0
 21
7.0
 31
0.0
  0
LINE
  5
1EF
  8
0
 10
100.0
 20
15.0
 30
0.0
 11
100.0
 21
25.0
 31
0.0
  0
LINE
  5
1F0
  8
0
 10
118.0
 20
4.0
 30
0.0
 11
118.0
 21
7.0
 31
0.0
  0
LINE
  5
1F1
  8
0
 10
118.0
 20
12.0
 30
0.0
 11
118.0
 21
13.0
 31
0.0
  0
LINE
  5
1F2
  8
0
 10
118.0
 20
15.0
 30
0.0
 11
118.0
 21
16.0
 31
0.0
  0
LINE
  5
1F3
  8
0
 10
118.0
 20
24.0
 30
0.0
 11
118.0
 21
25.0
 31
0.0
  0
LINE
  5
1F4
  8
0
 10
125.0
 20
4.0
 30
0.0
 11
125.0
 21
5.0
 31
0.0
  0
LINE
  5
1F5
  8
0
 10
125.0
 20
6.0
 30
0.0
 11
125.0
 21
7.0
 31
0.0
  0
LINE
  5
1F6
  8
0
 10
125.0
 20
24.0
 30
0.0
 11
125.0
 21
25.0
 31
0.0
  0
LINE
  5
1F7
  8
0
 10
11.0
 20
22.0
 30
0.0
 11
11.0
 21
24.0
 31
0.0
  0
LINE
  5
1F8
  8
0
 10
38.0
 20
2.0
 30
0.0
 11
38.0
 21
3.0
 31
0.0
  0
LINE
  5
1F9
  8
0
 10
38.0
 20
23.0
 30
0.0
 11
38.0
 21
24.0
 31
0.0
  0
LINE
  5
1FA
  8
0
 10
103.0
 20
5.0
 30
0.0
 11
103.0
 21
6.0
 31
0.0
  0
LINE
  5
1FB
  8
0
 10
103.0
 20
16.0
 30
0.0
 11
103.0
 21
24.0
 31
0.0
  0
LINE
  5
1FC
  8
0
 10
114.0
 20
4.0
 30
0.0
 11
114.0
 21
5.0
 31
0.0
  0
LINE
  5
1FD
  8
0
 10
114.0
 20
6.0
 30
0.0
 11
114.0
 21
7.0
 31
0.0
  0
LINE
  5
1FE
  8
0
 10
114.0
 20
16.0
 30
0.0
 11
114.0
 21
24.0
 31
0.0
  0
LINE
  5
1FF
  8
0
 10
117.0
 20
4.0
 30
0.0
 11
117.0
 21
5.0
 31
0.0
  0
LINE
  5
200
  8
0
 10
117.0
 20
16.0
 30
0.0
 11
117.0
 21
24.0
 31
0.0
  0
LINE
  5
201
  8
0
 10
39.0
 20
3.0
 30
0.0
 11
39.0
 21
5.0
 31
0.0
  0
LINE
  5
202
  8
0
 10
39.0
 20
16.0
 30
0.0
 11
39.0
 21
18.0
 31
0.0
  0
LINE
  5
203
  8
0
 10
39.0
 20
22.0
 30
0.0
 11
39.0
 21
23.0
 31
0.0
  0
LINE
  5
204
  8
0
 10
90.0
 20
4.0
 30
0.0
 11
90.0
 21
7.0
 31
0.0
  0
LINE
  5
205
  8
0
 10
90.0
 20
22.0
 30
0.0
 11
90.0
 21
23.0
 31
0.0
  0
LINE
  5
206
  8
0
 10
91.0
 20
4.0
 30
0.0
 11
91.0
 21
7.0
 31
0.0
  0
LINE
  5
207
  8
0
 10
91.0
 20
21.0
 30
0.0
 11
91.0
 21
23.0
 31
0.0
  0
LINE
  5
208
  8
0
 10
94.0
 20
13.0
 30
0.0
 11
94.0
 21
16.0
 31
0.0
  0
LINE
  5
209
  8
0
 10
94.0
 20
21.0
 30
0.0
 11
94.0
 21
23.0
 31
0.0
  0
LINE
  5
20A
  8
0
 10
10.0
 20
21.0
 30
0.0
 11
10.0
 21
22.0
 31
0.0
  0
LINE
  5
20B
  8
0
 10
41.0
 20
4.0
 30
0.0
 11
41.0
 21
5.0
 31
0.0
  0
LINE
  5
20C
  8
0
 10
41.0
 20
18.0
 30
0.0
 11
41.0
 21
19.0
 31
0.0
  0
LINE
  5
20D
  8
0
 10
41.0
 20
21.0
 30
0.0
 11
41.0
 21
22.0
 31
0.0
  0
LINE
  5
20E
  8
0
 10
87.0
 20
4.0
 30
0.0
 11
87.0
 21
5.0
 31
0.0
  0
LINE
  5
20F
  8
0
 10
87.0
 20
6.0
 30
0.0
 11
87.0
 21
7.0
 31
0.0
  0
LINE
  5
210
  8
0
 10
87.0
 20
15.0
 30
0.0
 11
87.0
 21
17.0
 31
0.0
  0
LINE
  5
211
  8
0
 10
87.0
 20
20.0
 30
0.0
 11
87.0
 21
22.0
 31
0.0
  0
LINE
  5
212
  8
0
 10
3.0
 20
14.0
 30
0.0
 11
3.0
 21
15.0
 31
0.0
  0
LINE
  5
213
  8
0
 10
3.0
 20
17.0
 30
0.0
 11
3.0
 21
21.0
 31
0.0
  0
LINE
  5
214
  8
0
 10
6.0
 20
2.0
 30
0.0
 11
6.0
 21
5.0
 31
0.0
  0
LINE
  5
215
  8
0
 10
6.0
 20
7.0
 30
0.0
 11
6.0
 21
8.0
 31
0.0
  0
LINE
  5
216
  8
0
 10
6.0
 20
19.0
 30
0.0
 11
6.0
 21
21.0
 31
0.0
  0
LINE
  5
217
  8
0
 10
9.0
 20
0.0
 30
0.0
 11
9.0
 21
1.0
 31
0.0
  0
LINE
  5
218
  8
0
 10
9.0
 20
19.0
 30
0.0
 11
9.0
 21
21.0
 31
0.0
  0
LINE
  5
219
  8
0
 10
42.0
 20
3.0
 30
0.0
 11
42.0
 21
4.0
 31
0.0
  0
LINE
  5
21A
  8
0
 10
42.0
 20
7.0
 30
0.0
 11
42.0
 21
8.0
 31
0.0
  0
LINE
  5
21B
  8
0
 10
42.0
 20
15.0
 30
0.0
 11
42.0
 21
17.0
 31
0.0
  0
LINE
  5
21C
  8
0
 10
42.0
 20
19.0
 30
0.0
 11
42.0
 21
21.0
 31
0.0
  0
LINE
  5
21D
  8
0
 10
54.0
 20
4.0
 30
0.0
 11
54.0
 21
7.0
 31
0.0
  0
LINE
  5
21E
  8
0
 10
54.0
 20
20.0
 30
0.0
 11
54.0
 21
21.0
 31
0.0
  0
LINE
  5
21F
  8
0
 10
95.0
 20
5.0
 30
0.0
 11
95.0
 21
7.0
 31
0.0
  0
LINE
  5
220
  8
0
 10
95.0
 20
12.0
 30
0.0
 11
95.0
 21
13.0
 31
0.0
  0
LINE
  5
221
  8
0
 10
95.0
 20
18.0
 30
0.0
 11
95.0
 21
21.0
 31
0.0
  0
LINE
  5
222
  8
0
 10
78.0
 20
4.0
 30
0.0
 11
78.0
 21
7.0
 31
0.0
  0
LINE
  5
223
  8
0
 10
78.0
 20
14.0
 30
0.0
 11
78.0
 21
20.0
 31
0.0
  0
LINE
  5
224
  8
0
 10
86.0
 20
4.0
 30
0.0
 11
86.0
 21
7.0
 31
0.0
  0
LINE
  5
225
  8
0
 10
86.0
 20
13.0
 30
0.0
 11
86.0
 21
15.0
 31
0.0
  0
LINE
  5
226
  8
0
 10
86.0
 20
18.0
 30
0.0
 11
86.0
 21
20.0
 31
0.0
  0
LINE
  5
227
  8
0
 10
7.0
 20
18.0
 30
0.0
 11
7.0
 21
19.0
 31
0.0
  0
LINE
  5
228
  8
0
 10
8.0
 20
1.0
 30
0.0
 11
8.0
 21
2.0
 31
0.0
  0
LINE
  5
229
  8
0
 10
8.0
 20
5.0
 30
0.0
 11
8.0
 21
8.0
 31
0.0
  0
LINE
  5
22A
  8
0
 10
8.0
 20
18.0
 30
0.0
 11
8.0
 21
19.0
 31
0.0
  0
LINE
  5
22B
  8
0
 10
72.0
 20
11.0
 30
0.0
 11
72.0
 21
12.0
 31
0.0
  0
LINE
  5
22C
  8
0
 10
72.0
 20
18.0
 30
0.0
 11
72.0
 21
19.0
 31
0.0
  0
LINE
  5
22D
  8
0
 10
43.0
 20
8.0
 30
0.0
 11
43.0
 21
9.0
 31
0.0
  0
LINE
  5
22E
  8
0
 10
43.0
 20
17.0
 30
0.0
 11
43.0
 21
18.0
 31
0.0
  0
LINE
  5
22F
  8
0
 10
45.0
 20
3.0
 30
0.0
 11
45.0
 21
6.0
 31
0.0
  0
LINE
  5
230
  8
0
 10
45.0
 20
9.0
 30
0.0
 11
45.0
 21
10.0
 31
0.0
  0
LINE
  5
231
  8
0
 10
45.0
 20
17.0
 30
0.0
 11
45.0
 21
18.0
 31
0.0
  0
LINE
  5
232
  8
0
 10
74.0
 20
5.0
 30
0.0
 11
74.0
 21
6.0
 31
0.0
  0
LINE
  5
233
  8
0
 10
74.0
 20
15.0
 30
0.0
 11
74.0
 21
18.0
 31
0.0
  0
LINE
  5
234
  8
0
 10
85.0
 20
4.0
 30
0.0
 11
85.0
 21
7.0
 31
0.0
  0
LINE
  5
235
  8
0
 10
85.0
 20
12.0
 30
0.0
 11
85.0
 21
13.0
 31
0.0
  0
LINE
  5
236
  8
0
 10
85.0
 20
15.0
 30
0.0
 11
85.0
 21
18.0
 31
0.0
  0
LINE
  5
237
  8
0
 10
96.0
 20
4.0
 30
0.0
 11
96.0
 21
7.0
 31
0.0
  0
LINE
  5
238
  8
0
 10
96.0
 20
16.0
 30
0.0
 11
96.0
 21
18.0
 31
0.0
  0
LINE
  5
239
  8
0
 10
5.0
 20
6.0
 30
0.0
 11
5.0
 21
7.0
 31
0.0
  0
LINE
  5
23A
  8
0
 10
5.0
 20
15.0
 30
0.0
 11
5.0
 21
17.0
 31
0.0
  0
LINE
  5
23B
  8
0
 10
46.0
 20
10.0
 30
0.0
 11
46.0
 21
11.0
 31
0.0
  0
LINE
  5
23C
  8
0
 10
46.0
 20
15.0
 30
0.0
 11
46.0
 21
17.0
 31
0.0
  0
LINE
  5
23D
  8
0
 10
40.0
 20
15.0
 30
0.0
 11
40.0
 21
16.0
 31
0.0
  0
LINE
  5
23E
  8
0
 10
97.0
 20
4.0
 30
0.0
 11
97.0
 21
7.0
 31
0.0
  0
LINE
  5
23F
  8
0
 10
97.0
 20
13.0
 30
0.0
 11
97.0
 21
16.0
 31
0.0
  0
LINE
  5
240
  8
0
 10
47.0
 20
14.0
 30
0.0
 11
47.0
 21
15.0
 31
0.0
  0
LINE
  5
241
  8
0
 10
84.0
 20
5.0
 30
0.0
 11
84.0
 21
7.0
 31
0.0
  0
LINE
  5
242
  8
0
 10
84.0
 20
12.0
 30
0.0
 11
84.0
 21
15.0
 31
0.0
  0
LINE
  5
243
  8
0
 10
2.0
 20
6.0
 30
0.0
 11
2.0
 21
8.0
 31
0.0
  0
LINE
  5
244
  8
0
 10
2.0
 20
13.0
 30
0.0
 11
2.0
 21
14.0
 31
0.0
  0
LINE
  5
245
  8
0
 10
112.0
 20
4.0
 30
0.0
 11
112.0
 21
5.0
 31
0.0
  0
LINE
  5
246
  8
0
 10
112.0
 20
6.0
 30
0.0
 11
112.0
 21
7.0
 31
0.0
  0
LINE
  5
247
  8
0
 10
112.0
 20
13.0
 30
0.0
 11
112.0
 21
14.0
 31
0.0
  0
LINE
  5
248
  8
0
 10
0.0
 20
9.0
 30
0.0
 11
0.0
 21
13.0
 31
0.0
  0
LINE
  5
249
  8
0
 10
98.0
 20
4.0
 30
0.0
 11
98.0
 21
7.0
 31
0.0
  0
LINE
  5
24A
  8
0
 10
98.0
 20
12.0
 30
0.0
 11
98.0
 21
13.0
 31
0.0
  0
LINE
  5
24B
  8
0
 10
24.0
 20
10.0
 30
0.0
 11
24.0
 21
11.0
 31
0.0
  0
LINE
  5
24C
  8
0
 10
21.0
 20
3.0
 30
0.0
 11
21.0
 21
6.0
 31
0.0
  0
LINE
  5
24D
  8
0
 10
21.0
 20
9.0
 30
0.0
 11
21.0
 21
10.0
 31
0.0
  0
LINE
  5
24E
  8
0
 10
1.0
 20
8.0
 30
0.0
 11
1.0
 21
9.0
 31
0.0
  0
LINE
  5
24F
  8
0
 10
44.0
 20
6.0
 30
0.0
 11
44.0
 21
7.0
 31
0.0
  0
LINE
  5
250
  8
0
 10
58.0
 20
4.0
 30
0.0
 11
58.0
 21
5.0
 31
0.0
  0
LINE
  5
251
  8
0
 10
58.0
 20
6.0
 30
0.0
 11
58.0
 21
7.0
 31
0.0
  0
LINE
  5
252
  8
0
 10
69.0
 20
5.0
 30
0.0
 11
69.0
 21
7.0
 31
0.0
  0
LINE
  5
253
  8
0
 10
79.0
 20
4.0
 30
0.0
 11
79.0
 21
7.0
 31
0.0
  0
LINE
  5
254
  8
0
 10
80.0
 20
4.0
 30
0.0
 11
80.0
 21
5.0
 31
0.0
  0
LINE
  5
255
  8
0
 10
80.0
 20
6.0
 30
0.0
 11
80.0
 21
7.0
 31
0.0
  0
LINE
  5
256
  8
0
 10
81.0
 20
4.0
 30
0.0
 11
81.0
 21
5.0
 31
0.0
  0
LINE
  5
257
  8
0
 10
81.0
 20
6.0
 30
0.0
 11
81.0
 21
7.0
 31
0.0
  0
LINE
  5
258
  8
0
 10
82.0
 20
5.0
 30
0.0
 11
82.0
 21
7.0
 31
0.0
  0
LINE
  5
259
  8
0
 10
83.0
 20
4.0
 30
0.0
 11
83.0
 21
7.0
 31
0.0
  0
LINE
  5
25A
  8
0
 10
99.0
 20
4.0
 30
0.0
 11
99.0
 21
7.0
 31
0.0
  0
LINE
  5
25B
  8
0
 10
106.0
 20
5.0
 30
0.0
 11
106.0
 21
7.0
 31
0.0
  0
LINE
  5
25C
  8
0
 10
107.0
 20
6.0
 30
0.0
 11
107.0
 21
7.0
 31
0.0
  0
LINE
  5
25D
  8
0
 10
120.0
 20
4.0
 30
0.0
 11
120.0
 21
5.0
 31
0.0
  0
LINE
  5
25E
  8
0
 10
120.0
 20
6.0
 30
0.0
 11
120.0
 21
7.0
 31
0.0
  0
LINE
  5
25F
  8
0
 10
121.0
 20
4.0
 30
0.0
 11
121.0
 21
7.0
 31
0.0
  0
LINE
  5
260
  8
0
 10
122.0
 20
4.0
 30
0.0
 11
122.0
 21
5.0
 31
0.0
  0
LINE
  5
261
  8
0
 10
122.0
 20
6.0
 30
0.0
 11
122.0
 21
7.0
 31
0.0
  0
LINE
  5
262
  8
0
 10
113.0
 20
4.0
 30
0.0
 11
113.0
 21
6.0
 31
0.0
  0
LINE
  5
263
  8
0
 10
127.0
 20
4.0
 30
0.0
 11
127.0
 21
5.0
 31
0.0
  0
LINE
  5
264
  8
0
 10
37.0
 20
0.0
 30
0.0
 11
37.0
 21
2.0
 31
0.0
  0
LINE
  5
265
  8
0
 10
22.0
 20
35.0
 30
0.0
 11
25.0
 21
35.0
 31
0.0
  0
LINE
  5
266
  8
0
 10
20.0
 20
34.0
 30
0.0
 11
25.0
 21
34.0
 31
0.0
  0
LINE
  5
267
  8
0
 10
19.0
 20
33.0
 30
0.0
 11
26.0
 21
33.0
 31
0.0
  0
LINE
  5
268
  8
0
 10
18.0
 20
32.0
 30
0.0
 11
27.0
 21
32.0
 31
0.0
  0
LINE
  5
269
  8
0
 10
30.0
 20
32.0
 30
0.0
 11
33.0
 21
32.0
 31
0.0
  0
LINE
  5
26A
  8
0
 10
18.0
 20
31.0
 30
0.0
 11
27.0
 21
31.0
 31
0.0
  0
LINE
  5
26B
  8
0
 10
29.0
 20
31.0
 30
0.0
 11
33.0
 21
31.0
 31
0.0
  0
LINE
  5
26C
  8
0
 10
19.0
 20
30.0
 30
0.0
 11
33.0
 21
30.0
 31
0.0
  0
LINE
  5
26D
  8
0
 10
15.0
 20
29.0
 30
0.0
 11
17.0
 21
29.0
 31
0.0
  0
LINE
  5
26E
  8
0
 10
20.0
 20
29.0
 30
0.0
 11
32.0
 21
29.0
 31
0.0
  0
LINE
  5
26F
  8
0
 10
14.0
 20
28.0
 30
0.0
 11
17.0
 21
28.0
 31
0.0
  0
LINE
  5
270
  8
0
 10
20.0
 20
28.0
 30
0.0
 11
31.0
 21
28.0
 31
0.0
  0
LINE
  5
271
  8
0
 10
48.0
 20
28.0
 30
0.0
 11
53.0
 21
28.0
 31
0.0
  0
LINE
  5
272
  8
0
 10
62.0
 20
28.0
 30
0.0
 11
66.0
 21
28.0
 31
0.0
  0
LINE
  5
273
  8
0
 10
68.0
 20
28.0
 30
0.0
 11
76.0
 21
28.0
 31
0.0
  0
LINE
  5
274
  8
0
 10
13.0
 20
27.0
 30
0.0
 11
18.0
 21
27.0
 31
0.0
  0
LINE
  5
275
  8
0
 10
20.0
 20
27.0
 30
0.0
 11
31.0
 21
27.0
 31
0.0
  0
LINE
  5
276
  8
0
 10
48.0
 20
27.0
 30
0.0
 11
55.0
 21
27.0
 31
0.0
  0
LINE
  5
277
  8
0
 10
61.0
 20
27.0
 30
0.0
 11
65.0
 21
27.0
 31
0.0
  0
LINE
  5
278
  8
0
 10
67.0
 20
27.0
 30
0.0
 11
77.0
 21
27.0
 31
0.0
  0
LINE
  5
279
  8
0
 10
105.0
 20
27.0
 30
0.0
 11
109.0
 21
27.0
 31
0.0
  0
LINE
  5
27A
  8
0
 10
119.0
 20
27.0
 30
0.0
 11
123.0
 21
27.0
 31
0.0
  0
LINE
  5
27B
  8
0
 10
13.0
 20
26.0
 30
0.0
 11
33.0
 21
26.0
 31
0.0
  0
LINE
  5
27C
  8
0
 10
50.0
 20
26.0
 30
0.0
 11
55.0
 21
26.0
 31
0.0
  0
LINE
  5
27D
  8
0
 10
61.0
 20
26.0
 30
0.0
 11
64.0
 21
26.0
 31
0.0
  0
LINE
  5
27E
  8
0
 10
66.0
 20
26.0
 30
0.0
 11
71.0
 21
26.0
 31
0.0
  0
LINE
  5
27F
  8
0
 10
73.0
 20
26.0
 30
0.0
 11
77.0
 21
26.0
 31
0.0
  0
LINE
  5
280
  8
0
 10
89.0
 20
26.0
 30
0.0
 11
92.0
 21
26.0
 31
0.0
  0
LINE
  5
281
  8
0
 10
102.0
 20
26.0
 30
0.0
 11
111.0
 21
26.0
 31
0.0
  0
LINE
  5
282
  8
0
 10
116.0
 20
26.0
 30
0.0
 11
126.0
 21
26.0
 31
0.0
  0
LINE
  5
283
  8
0
 10
12.0
 20
25.0
 30
0.0
 11
34.0
 21
25.0
 31
0.0
  0
LINE
  5
284
  8
0
 10
51.0
 20
25.0
 30
0.0
 11
56.0
 21
25.0
 31
0.0
  0
LINE
  5
285
  8
0
 10
60.0
 20
25.0
 30
0.0
 11
64.0
 21
25.0
 31
0.0
  0
LINE
  5
286
  8
0
 10
66.0
 20
25.0
 30
0.0
 11
70.0
 21
25.0
 31
0.0
  0
LINE
  5
287
  8
0
 10
75.0
 20
25.0
 30
0.0
 11
77.0
 21
25.0
 31
0.0
  0
LINE
  5
288
  8
0
 10
89.0
 20
25.0
 30
0.0
 11
93.0
 21
25.0
 31
0.0
  0
LINE
  5
289
  8
0
 10
101.0
 20
25.0
 30
0.0
 11
104.0
 21
25.0
 31
0.0
  0
LINE
  5
28A
  8
0
 10
110.0
 20
25.0
 30
0.0
 11
111.0
 21
25.0
 31
0.0
  0
LINE
  5
28B
  8
0
 10
115.0
 20
25.0
 30
0.0
 11
119.0
 21
25.0
 31
0.0
  0
LINE
  5
28C
  8
0
 10
124.0
 20
25.0
 30
0.0
 11
126.0
 21
25.0
 31
0.0
  0
LINE
  5
28D
  8
0
 10
12.0
 20
24.0
 30
0.0
 11
36.0
 21
24.0
 31
0.0
  0
LINE
  5
28E
  8
0
 10
52.0
 20
24.0
 30
0.0
 11
57.0
 21
24.0
 31
0.0
  0
LINE
  5
28F
  8
0
 10
59.0
 20
24.0
 30
0.0
 11
63.0
 21
24.0
 31
0.0
  0
LINE
  5
290
  8
0
 10
65.0
 20
24.0
 30
0.0
 11
70.0
 21
24.0
 31
0.0
  0
LINE
  5
291
  8
0
 10
75.0
 20
24.0
 30
0.0
 11
77.0
 21
24.0
 31
0.0
  0
LINE
  5
292
  8
0
 10
88.0
 20
24.0
 30
0.0
 11
93.0
 21
24.0
 31
0.0
  0
LINE
  5
293
  8
0
 10
100.0
 20
24.0
 30
0.0
 11
104.0
 21
24.0
 31
0.0
  0
LINE
  5
294
  8
0
 10
110.0
 20
24.0
 30
0.0
 11
111.0
 21
24.0
 31
0.0
  0
LINE
  5
295
  8
0
 10
115.0
 20
24.0
 30
0.0
 11
118.0
 21
24.0
 31
0.0
  0
LINE
  5
296
  8
0
 10
125.0
 20
24.0
 30
0.0
 11
126.0
 21
24.0
 31
0.0
  0
LINE
  5
297
  8
0
 10
11.0
 20
23.0
 30
0.0
 11
38.0
 21
23.0
 31
0.0
  0
LINE
  5
298
  8
0
 10
52.0
 20
23.0
 30
0.0
 11
57.0
 21
23.0
 31
0.0
  0
LINE
  5
299
  8
0
 10
59.0
 20
23.0
 30
0.0
 11
62.0
 21
23.0
 31
0.0
  0
LINE
  5
29A
  8
0
 10
66.0
 20
23.0
 30
0.0
 11
71.0
 21
23.0
 31
0.0
  0
LINE
  5
29B
  8
0
 10
88.0
 20
23.0
 30
0.0
 11
93.0
 21
23.0
 31
0.0
  0
LINE
  5
29C
  8
0
 10
100.0
 20
23.0
 30
0.0
 11
103.0
 21
23.0
 31
0.0
  0
LINE
  5
29D
  8
0
 10
114.0
 20
23.0
 30
0.0
 11
117.0
 21
23.0
 31
0.0
  0
LINE
  5
29E
  8
0
 10
11.0
 20
22.0
 30
0.0
 11
39.0
 21
22.0
 31
0.0
  0
LINE
  5
29F
  8
0
 10
53.0
 20
22.0
 30
0.0
 11
62.0
 21
22.0
 31
0.0
  0
LINE
  5
2A0
  8
0
 10
66.0
 20
22.0
 30
0.0
 11
73.0
 21
22.0
 31
0.0
  0
LINE
  5
2A1
  8
0
 10
88.0
 20
22.0
 30
0.0
 11
90.0
 21
22.0
 31
0.0
  0
LINE
  5
2A2
  8
0
 10
91.0
 20
22.0
 30
0.0
 11
94.0
 21
22.0
 31
0.0
  0
LINE
  5
2A3
  8
0
 10
100.0
 20
22.0
 30
0.0
 11
103.0
 21
22.0
 31
0.0
  0
LINE
  5
2A4
  8
0
 10
114.0
 20
22.0
 30
0.0
 11
117.0
 21
22.0
 31
0.0
  0
LINE
  5
2A5
  8
0
 10
10.0
 20
21.0
 30
0.0
 11
41.0
 21
21.0
 31
0.0
  0
LINE
  5
2A6
  8
0
 10
53.0
 20
21.0
 30
0.0
 11
61.0
 21
21.0
 31
0.0
  0
LINE
  5
2A7
  8
0
 10
67.0
 20
21.0
 30
0.0
 11
75.0
 21
21.0
 31
0.0
  0
LINE
  5
2A8
  8
0
 10
87.0
 20
21.0
 30
0.0
 11
89.0
 21
21.0
 31
0.0
  0
LINE
  5
2A9
  8
0
 10
91.0
 20
21.0
 30
0.0
 11
94.0
 21
21.0
 31
0.0
  0
LINE
  5
2AA
  8
0
 10
100.0
 20
21.0
 30
0.0
 11
103.0
 21
21.0
 31
0.0
  0
LINE
  5
2AB
  8
0
 10
114.0
 20
21.0
 30
0.0
 11
117.0
 21
21.0
 31
0.0
  0
LINE
  5
2AC
  8
0
 10
3.0
 20
20.0
 30
0.0
 11
6.0
 21
20.0
 31
0.0
  0
LINE
  5
2AD
  8
0
 10
9.0
 20
20.0
 30
0.0
 11
42.0
 21
20.0
 31
0.0
  0
LINE
  5
2AE
  8
0
 10
54.0
 20
20.0
 30
0.0
 11
60.0
 21
20.0
 31
0.0
  0
LINE
  5
2AF
  8
0
 10
68.0
 20
20.0
 30
0.0
 11
77.0
 21
20.0
 31
0.0
  0
LINE
  5
2B0
  8
0
 10
87.0
 20
20.0
 30
0.0
 11
89.0
 21
20.0
 31
0.0
  0
LINE
  5
2B1
  8
0
 10
92.0
 20
20.0
 30
0.0
 11
95.0
 21
20.0
 31
0.0
  0
LINE
  5
2B2
  8
0
 10
100.0
 20
20.0
 30
0.0
 11
103.0
 21
20.0
 31
0.0
  0
LINE
  5
2B3
  8
0
 10
114.0
 20
20.0
 30
0.0
 11
117.0
 21
20.0
 31
0.0
  0
LINE
  5
2B4
  8
0
 10
3.0
 20
19.0
 30
0.0
 11
6.0
 21
19.0
 31
0.0
  0
LINE
  5
2B5
  8
0
 10
9.0
 20
19.0
 30
0.0
 11
42.0
 21
19.0
 31
0.0
  0
LINE
  5
2B6
  8
0
 10
55.0
 20
19.0
 30
0.0
 11
60.0
 21
19.0
 31
0.0
  0
LINE
  5
2B7
  8
0
 10
70.0
 20
19.0
 30
0.0
 11
78.0
 21
19.0
 31
0.0
  0
LINE
  5
2B8
  8
0
 10
86.0
 20
19.0
 30
0.0
 11
88.0
 21
19.0
 31
0.0
  0
LINE
  5
2B9
  8
0
 10
92.0
 20
19.0
 30
0.0
 11
95.0
 21
19.0
 31
0.0
  0
LINE
  5
2BA
  8
0
 10
100.0
 20
19.0
 30
0.0
 11
103.0
 21
19.0
 31
0.0
  0
LINE
  5
2BB
  8
0
 10
114.0
 20
19.0
 30
0.0
 11
117.0
 21
19.0
 31
0.0
  0
LINE
  5
2BC
  8
0
 10
3.0
 20
18.0
 30
0.0
 11
7.0
 21
18.0
 31
0.0
  0
LINE
  5
2BD
  8
0
 10
8.0
 20
18.0
 30
0.0
 11
41.0
 21
18.0
 31
0.0
  0
LINE
  5
2BE
  8
0
 10
55.0
 20
18.0
 30
0.0
 11
59.0
 21
18.0
 31
0.0
  0
LINE
  5
2BF
  8
0
 10
72.0
 20
18.0
 30
0.0
 11
78.0
 21
18.0
 31
0.0
  0
LINE
  5
2C0
  8
0
 10
86.0
 20
18.0
 30
0.0
 11
88.0
 21
18.0
 31
0.0
  0
LINE
  5
2C1
  8
0
 10
92.0
 20
18.0
 30
0.0
 11
95.0
 21
18.0
 31
0.0
  0
LINE
  5
2C2
  8
0
 10
100.0
 20
18.0
 30
0.0
 11
103.0
 21
18.0
 31
0.0
  0
LINE
  5
2C3
  8
0
 10
114.0
 20
18.0
 30
0.0
 11
117.0
 21
18.0
 31
0.0
  0
LINE
  5
2C4
  8
0
 10
3.0
 20
17.0
 30
0.0
 11
39.0
 21
17.0
 31
0.0
  0
LINE
  5
2C5
  8
0
 10
43.0
 20
17.0
 30
0.0
 11
45.0
 21
17.0
 31
0.0
  0
LINE
  5
2C6
  8
0
 10
55.0
 20
17.0
 30
0.0
 11
59.0
 21
17.0
 31
0.0
  0
LINE
  5
2C7
  8
0
 10
74.0
 20
17.0
 30
0.0
 11
78.0
 21
17.0
 31
0.0
  0
LINE
  5
2C8
  8
0
 10
85.0
 20
17.0
 30
0.0
 11
96.0
 21
17.0
 31
0.0
  0
LINE
  5
2C9
  8
0
 10
100.0
 20
17.0
 30
0.0
 11
103.0
 21
17.0
 31
0.0
  0
LINE
  5
2CA
  8
0
 10
114.0
 20
17.0
 30
0.0
 11
117.0
 21
17.0
 31
0.0
  0
LINE
  5
2CB
  8
0
 10
5.0
 20
16.0
 30
0.0
 11
39.0
 21
16.0
 31
0.0
  0
LINE
  5
2CC
  8
0
 10
42.0
 20
16.0
 30
0.0
 11
46.0
 21
16.0
 31
0.0
  0
LINE
  5
2CD
  8
0
 10
55.0
 20
16.0
 30
0.0
 11
59.0
 21
16.0
 31
0.0
  0
LINE
  5
2CE
  8
0
 10
74.0
 20
16.0
 30
0.0
 11
78.0
 21
16.0
 31
0.0
  0
LINE
  5
2CF
  8
0
 10
85.0
 20
16.0
 30
0.0
 11
87.0
 21
16.0
 31
0.0
  0
LINE
  5
2D0
  8
0
 10
93.0
 20
16.0
 30
0.0
 11
96.0
 21
16.0
 31
0.0
  0
LINE
  5
2D1
  8
0
 10
100.0
 20
16.0
 30
0.0
 11
103.0
 21
16.0
 31
0.0
  0
LINE
  5
2D2
  8
0
 10
114.0
 20
16.0
 30
0.0
 11
117.0
 21
16.0
 31
0.0
  0
LINE
  5
2D3
  8
0
 10
5.0
 20
15.0
 30
0.0
 11
40.0
 21
15.0
 31
0.0
  0
LINE
  5
2D4
  8
0
 10
42.0
 20
15.0
 30
0.0
 11
46.0
 21
15.0
 31
0.0
  0
LINE
  5
2D5
  8
0
 10
55.0
 20
15.0
 30
0.0
 11
59.0
 21
15.0
 31
0.0
  0
LINE
  5
2D6
  8
0
 10
66.0
 20
15.0
 30
0.0
 11
68.0
 21
15.0
 31
0.0
  0
LINE
  5
2D7
  8
0
 10
74.0
 20
15.0
 30
0.0
 11
78.0
 21
15.0
 31
0.0
  0
LINE
  5
2D8
  8
0
 10
85.0
 20
15.0
 30
0.0
 11
87.0
 21
15.0
 31
0.0
  0
LINE
  5
2D9
  8
0
 10
94.0
 20
15.0
 30
0.0
 11
97.0
 21
15.0
 31
0.0
  0
LINE
  5
2DA
  8
0
 10
100.0
 20
15.0
 30
0.0
 11
104.0
 21
15.0
 31
0.0
  0
LINE
  5
2DB
  8
0
 10
115.0
 20
15.0
 30
0.0
 11
118.0
 21
15.0
 31
0.0
  0
LINE
  5
2DC
  8
0
 10
3.0
 20
14.0
 30
0.0
 11
47.0
 21
14.0
 31
0.0
  0
LINE
  5
2DD
  8
0
 10
55.0
 20
14.0
 30
0.0
 11
59.0
 21
14.0
 31
0.0
  0
LINE
  5
2DE
  8
0
 10
65.0
 20
14.0
 30
0.0
 11
78.0
 21
14.0
 31
0.0
  0
LINE
  5
2DF
  8
0
 10
84.0
 20
14.0
 30
0.0
 11
86.0
 21
14.0
 31
0.0
  0
LINE
  5
2E0
  8
0
 10
94.0
 20
14.0
 30
0.0
 11
97.0
 21
14.0
 31
0.0
  0
LINE
  5
2E1
  8
0
 10
101.0
 20
14.0
 30
0.0
 11
105.0
 21
14.0
 31
0.0
  0
LINE
  5
2E2
  8
0
 10
115.0
 20
14.0
 30
0.0
 11
119.0
 21
14.0
 31
0.0
  0
LINE
  5
2E3
  8
0
 10
2.0
 20
13.0
 30
0.0
 11
48.0
 21
13.0
 31
0.0
  0
LINE
  5
2E4
  8
0
 10
55.0
 20
13.0
 30
0.0
 11
59.0
 21
13.0
 31
0.0
  0
LINE
  5
2E5
  8
0
 10
66.0
 20
13.0
 30
0.0
 11
77.0
 21
13.0
 31
0.0
  0
LINE
  5
2E6
  8
0
 10
84.0
 20
13.0
 30
0.0
 11
86.0
 21
13.0
 31
0.0
  0
LINE
  5
2E7
  8
0
 10
94.0
 20
13.0
 30
0.0
 11
97.0
 21
13.0
 31
0.0
  0
LINE
  5
2E8
  8
0
 10
102.0
 20
13.0
 30
0.0
 11
112.0
 21
13.0
 31
0.0
  0
LINE
  5
2E9
  8
0
 10
116.0
 20
13.0
 30
0.0
 11
126.0
 21
13.0
 31
0.0
  0
LINE
  5
2EA
  8
0
 10
0.0
 20
12.0
 30
0.0
 11
48.0
 21
12.0
 31
0.0
  0
LINE
  5
2EB
  8
0
 10
55.0
 20
12.0
 30
0.0
 11
59.0
 21
12.0
 31
0.0
  0
LINE
  5
2EC
  8
0
 10
67.0
 20
12.0
 30
0.0
 11
76.0
 21
12.0
 31
0.0
  0
LINE
  5
2ED
  8
0
 10
84.0
 20
12.0
 30
0.0
 11
85.0
 21
12.0
 31
0.0
  0
LINE
  5
2EE
  8
0
 10
95.0
 20
12.0
 30
0.0
 11
98.0
 21
12.0
 31
0.0
  0
LINE
  5
2EF
  8
0
 10
104.0
 20
12.0
 30
0.0
 11
110.0
 21
12.0
 31
0.0
  0
LINE
  5
2F0
  8
0
 10
118.0
 20
12.0
 30
0.0
 11
124.0
 21
12.0
 31
0.0
  0
LINE
  5
2F1
  8
0
 10
0.0
 20
11.0
 30
0.0
 11
48.0
 21
11.0
 31
0.0
  0
LINE
  5
2F2
  8
0
 10
57.0
 20
11.0
 30
0.0
 11
59.0
 21
11.0
 31
0.0
  0
LINE
  5
2F3
  8
0
 10
71.0
 20
11.0
 30
0.0
 11
72.0
 21
11.0
 31
0.0
  0
LINE
  5
2F4
  8
0
 10
0.0
 20
10.0
 30
0.0
 11
22.0
 21
10.0
 31
0.0
  0
LINE
  5
2F5
  8
0
 10
24.0
 20
10.0
 30
0.0
 11
46.0
 21
10.0
 31
0.0
  0
LINE
  5
2F6
  8
0
 10
0.0
 20
9.0
 30
0.0
 11
21.0
 21
9.0
 31
0.0
  0
LINE
  5
2F7
  8
0
 10
25.0
 20
9.0
 30
0.0
 11
45.0
 21
9.0
 31
0.0
  0
LINE
  5
2F8
  8
0
 10
1.0
 20
8.0
 30
0.0
 11
20.0
 21
8.0
 31
0.0
  0
LINE
  5
2F9
  8
0
 10
25.0
 20
8.0
 30
0.0
 11
43.0
 21
8.0
 31
0.0
  0
LINE
  5
2FA
  8
0
 10
2.0
 20
7.0
 30
0.0
 11
6.0
 21
7.0
 31
0.0
  0
LINE
  5
2FB
  8
0
 10
8.0
 20
7.0
 30
0.0
 11
18.0
 21
7.0
 31
0.0
  0
LINE
  5
2FC
  8
0
 10
26.0
 20
7.0
 30
0.0
 11
30.0
 21
7.0
 31
0.0
  0
LINE
  5
2FD
  8
0
 10
32.0
 20
7.0
 30
0.0
 11
42.0
 21
7.0
 31
0.0
  0
LINE
  5
2FE
  8
0
 10
2.0
 20
6.0
 30
0.0
 11
5.0
 21
6.0
 31
0.0
  0
LINE
  5
2FF
  8
0
 10
8.0
 20
6.0
 30
0.0
 11
20.0
 21
6.0
 31
0.0
  0
LINE
  5
300
  8
0
 10
27.0
 20
6.0
 30
0.0
 11
29.0
 21
6.0
 31
0.0
  0
LINE
  5
301
  8
0
 10
32.0
 20
6.0
 30
0.0
 11
44.0
 21
6.0
 31
0.0
  0
LINE
  5
302
  8
0
 10
54.0
 20
6.0
 30
0.0
 11
55.0
 21
6.0
 31
0.0
  0
LINE
  5
303
  8
0
 10
56.0
 20
6.0
 30
0.0
 11
57.0
 21
6.0
 31
0.0
  0
LINE
  5
304
  8
0
 10
58.0
 20
6.0
 30
0.0
 11
59.0
 21
6.0
 31
0.0
  0
LINE
  5
305
  8
0
 10
60.0
 20
6.0
 30
0.0
 11
61.0
 21
6.0
 31
0.0
  0
LINE
  5
306
  8
0
 10
62.0
 20
6.0
 30
0.0
 11
63.0
 21
6.0
 31
0.0
  0
LINE
  5
307
  8
0
 10
64.0
 20
6.0
 30
0.0
 11
65.0
 21
6.0
 31
0.0
  0
LINE
  5
308
  8
0
 10
69.0
 20
6.0
 30
0.0
 11
71.0
 21
6.0
 31
0.0
  0
LINE
  5
309
  8
0
 10
75.0
 20
6.0
 30
0.0
 11
77.0
 21
6.0
 31
0.0
  0
LINE
  5
30A
  8
0
 10
78.0
 20
6.0
 30
0.0
 11
79.0
 21
6.0
 31
0.0
  0
LINE
  5
30B
  8
0
 10
80.0
 20
6.0
 30
0.0
 11
81.0
 21
6.0
 31
0.0
  0
LINE
  5
30C
  8
0
 10
82.0
 20
6.0
 30
0.0
 11
83.0
 21
6.0
 31
0.0
  0
LINE
  5
30D
  8
0
 10
84.0
 20
6.0
 30
0.0
 11
85.0
 21
6.0
 31
0.0
  0
LINE
  5
30E
  8
0
 10
86.0
 20
6.0
 30
0.0
 11
87.0
 21
6.0
 31
0.0
  0
LINE
  5
30F
  8
0
 10
88.0
 20
6.0
 30
0.0
 11
90.0
 21
6.0
 31
0.0
  0
LINE
  5
310
  8
0
 10
91.0
 20
6.0
 30
0.0
 11
92.0
 21
6.0
 31
0.0
  0
LINE
  5
311
  8
0
 10
93.0
 20
6.0
 30
0.0
 11
95.0
 21
6.0
 31
0.0
  0
LINE
  5
312
  8
0
 10
96.0
 20
6.0
 30
0.0
 11
97.0
 21
6.0
 31
0.0
  0
LINE
  5
313
  8
0
 10
98.0
 20
6.0
 30
0.0
 11
99.0
 21
6.0
 31
0.0
  0
LINE
  5
314
  8
0
 10
100.0
 20
6.0
 30
0.0
 11
101.0
 21
6.0
 31
0.0
  0
LINE
  5
315
  8
0
 10
106.0
 20
6.0
 30
0.0
 11
107.0
 21
6.0
 31
0.0
  0
LINE
  5
316
  8
0
 10
109.0
 20
6.0
 30
0.0
 11
110.0
 21
6.0
 31
0.0
  0
LINE
  5
317
  8
0
 10
111.0
 20
6.0
 30
0.0
 11
112.0
 21
6.0
 31
0.0
  0
LINE
  5
318
  8
0
 10
114.0
 20
6.0
 30
0.0
 11
115.0
 21
6.0
 31
0.0
  0
LINE
  5
319
  8
0
 10
116.0
 20
6.0
 30
0.0
 11
118.0
 21
6.0
 31
0.0
  0
LINE
  5
31A
  8
0
 10
119.0
 20
6.0
 30
0.0
 11
120.0
 21
6.0
 31
0.0
  0
LINE
  5
31B
  8
0
 10
121.0
 20
6.0
 30
0.0
 11
122.0
 21
6.0
 31
0.0
  0
LINE
  5
31C
  8
0
 10
123.0
 20
6.0
 30
0.0
 11
125.0
 21
6.0
 31
0.0
  0
LINE
  5
31D
  8
0
 10
8.0
 20
5.0
 30
0.0
 11
21.0
 21
5.0
 31
0.0
  0
LINE
  5
31E
  8
0
 10
32.0
 20
5.0
 30
0.0
 11
45.0
 21
5.0
 31
0.0
  0
LINE
  5
31F
  8
0
 10
53.0
 20
5.0
 30
0.0
 11
54.0
 21
5.0
 31
0.0
  0
LINE
  5
320
  8
0
 10
56.0
 20
5.0
 30
0.0
 11
57.0
 21
5.0
 31
0.0
  0
LINE
  5
321
  8
0
 10
60.0
 20
5.0
 30
0.0
 11
61.0
 21
5.0
 31
0.0
  0
LINE
  5
322
  8
0
 10
62.0
 20
5.0
 30
0.0
 11
63.0
 21
5.0
 31
0.0
  0
LINE
  5
323
  8
0
 10
65.0
 20
5.0
 30
0.0
 11
66.0
 21
5.0
 31
0.0
  0
LINE
  5
324
  8
0
 10
69.0
 20
5.0
 30
0.0
 11
71.0
 21
5.0
 31
0.0
  0
LINE
  5
325
  8
0
 10
74.0
 20
5.0
 30
0.0
 11
75.0
 21
5.0
 31
0.0
  0
LINE
  5
326
  8
0
 10
78.0
 20
5.0
 30
0.0
 11
79.0
 21
5.0
 31
0.0
  0
LINE
  5
327
  8
0
 10
82.0
 20
5.0
 30
0.0
 11
83.0
 21
5.0
 31
0.0
  0
LINE
  5
328
  8
0
 10
84.0
 20
5.0
 30
0.0
 11
85.0
 21
5.0
 31
0.0
  0
LINE
  5
329
  8
0
 10
86.0
 20
5.0
 30
0.0
 11
90.0
 21
5.0
 31
0.0
  0
LINE
  5
32A
  8
0
 10
91.0
 20
5.0
 30
0.0
 11
92.0
 21
5.0
 31
0.0
  0
LINE
  5
32B
  8
0
 10
93.0
 20
5.0
 30
0.0
 11
95.0
 21
5.0
 31
0.0
  0
LINE
  5
32C
  8
0
 10
96.0
 20
5.0
 30
0.0
 11
97.0
 21
5.0
 31
0.0
  0
LINE
  5
32D
  8
0
 10
98.0
 20
5.0
 30
0.0
 11
99.0
 21
5.0
 31
0.0
  0
LINE
  5
32E
  8
0
 10
100.0
 20
5.0
 30
0.0
 11
103.0
 21
5.0
 31
0.0
  0
LINE
  5
32F
  8
0
 10
105.0
 20
5.0
 30
0.0
 11
106.0
 21
5.0
 31
0.0
  0
LINE
  5
330
  8
0
 10
109.0
 20
5.0
 30
0.0
 11
110.0
 21
5.0
 31
0.0
  0
LINE
  5
331
  8
0
 10
113.0
 20
5.0
 30
0.0
 11
118.0
 21
5.0
 31
0.0
  0
LINE
  5
332
  8
0
 10
121.0
 20
5.0
 30
0.0
 11
126.0
 21
5.0
 31
0.0
  0
LINE
  5
333
  8
0
 10
6.0
 20
4.0
 30
0.0
 11
15.0
 21
4.0
 31
0.0
  0
LINE
  5
334
  8
0
 10
17.0
 20
4.0
 30
0.0
 11
21.0
 21
4.0
 31
0.0
  0
LINE
  5
335
  8
0
 10
30.0
 20
4.0
 30
0.0
 11
39.0
 21
4.0
 31
0.0
  0
LINE
  5
336
  8
0
 10
41.0
 20
4.0
 30
0.0
 11
45.0
 21
4.0
 31
0.0
  0
LINE
  5
337
  8
0
 10
53.0
 20
4.0
 30
0.0
 11
54.0
 21
4.0
 31
0.0
  0
LINE
  5
338
  8
0
 10
55.0
 20
4.0
 30
0.0
 11
57.0
 21
4.0
 31
0.0
  0
LINE
  5
339
  8
0
 10
58.0
 20
4.0
 30
0.0
 11
59.0
 21
4.0
 31
0.0
  0
LINE
  5
33A
  8
0
 10
60.0
 20
4.0
 30
0.0
 11
61.0
 21
4.0
 31
0.0
  0
LINE
  5
33B
  8
0
 10
62.0
 20
4.0
 30
0.0
 11
64.0
 21
4.0
 31
0.0
  0
LINE
  5
33C
  8
0
 10
65.0
 20
4.0
 30
0.0
 11
66.0
 21
4.0
 31
0.0
  0
LINE
  5
33D
  8
0
 10
70.0
 20
4.0
 30
0.0
 11
71.0
 21
4.0
 31
0.0
  0
LINE
  5
33E
  8
0
 10
78.0
 20
4.0
 30
0.0
 11
79.0
 21
4.0
 31
0.0
  0
LINE
  5
33F
  8
0
 10
80.0
 20
4.0
 30
0.0
 11
81.0
 21
4.0
 31
0.0
  0
LINE
  5
340
  8
0
 10
83.0
 20
4.0
 30
0.0
 11
85.0
 21
4.0
 31
0.0
  0
LINE
  5
341
  8
0
 10
86.0
 20
4.0
 30
0.0
 11
87.0
 21
4.0
 31
0.0
  0
LINE
  5
342
  8
0
 10
89.0
 20
4.0
 30
0.0
 11
90.0
 21
4.0
 31
0.0
  0
LINE
  5
343
  8
0
 10
91.0
 20
4.0
 30
0.0
 11
92.0
 21
4.0
 31
0.0
  0
LINE
  5
344
  8
0
 10
96.0
 20
4.0
 30
0.0
 11
97.0
 21
4.0
 31
0.0
  0
LINE
  5
345
  8
0
 10
98.0
 20
4.0
 30
0.0
 11
99.0
 21
4.0
 31
0.0
  0
LINE
  5
346
  8
0
 10
100.0
 20
4.0
 30
0.0
 11
101.0
 21
4.0
 31
0.0
  0
LINE
  5
347
  8
0
 10
109.0
 20
4.0
 30
0.0
 11
110.0
 21
4.0
 31
0.0
  0
LINE
  5
348
  8
0
 10
111.0
 20
4.0
 30
0.0
 11
112.0
 21
4.0
 31
0.0
  0
LINE
  5
349
  8
0
 10
113.0
 20
4.0
 30
0.0
 11
114.0
 21
4.0
 31
0.0
  0
LINE
  5
34A
  8
0
 10
115.0
 20
4.0
 30
0.0
 11
116.0
 21
4.0
 31
0.0
  0
LINE
  5
34B
  8
0
 10
117.0
 20
4.0
 30
0.0
 11
118.0
 21
4.0
 31
0.0
  0
LINE
  5
34C
  8
0
 10
119.0
 20
4.0
 30
0.0
 11
120.0
 21
4.0
 31
0.0
  0
LINE
  5
34D
  8
0
 10
121.0
 20
4.0
 30
0.0
 11
122.0
 21
4.0
 31
0.0
  0
LINE
  5
34E
  8
0
 10
124.0
 20
4.0
 30
0.0
 11
125.0
 21
4.0
 31
0.0
  0
LINE
  5
34F
  8
0
 10
126.0
 20
4.0
 30
0.0
 11
127.0
 21
4.0
 31
0.0
  0
LINE
  5
350
  8
0
 10
6.0
 20
3.0
 30
0.0
 11
15.0
 21
3.0
 31
0.0
  0
LINE
  5
351
  8
0
 10
17.0
 20
3.0
 30
0.0
 11
21.0
 21
3.0
 31
0.0
  0
LINE
  5
352
  8
0
 10
30.0
 20
3.0
 30
0.0
 11
39.0
 21
3.0
 31
0.0
  0
LINE
  5
353
  8
0
 10
42.0
 20
3.0
 30
0.0
 11
45.0
 21
3.0
 31
0.0
  0
LINE
  5
354
  8
0
 10
6.0
 20
2.0
 30
0.0
 11
14.0
 21
2.0
 31
0.0
  0
LINE
  5
355
  8
0
 10
18.0
 20
2.0
 30
0.0
 11
20.0
 21
2.0
 31
0.0
  0
LINE
  5
356
  8
0
 10
31.0
 20
2.0
 30
0.0
 11
38.0
 21
2.0
 31
0.0
  0
LINE
  5
357
  8
0
 10
8.0
 20
1.0
 30
0.0
 11
13.0
 21
1.0
 31
0.0
  0
LINE
  5
358
  8
0
 10
32.0
 20
1.0
 30
0.0
 11
37.0
 21
1.0
 31
0.0
  0
LINE
  5
359
  8
0
 10
9.0
 20
0.0
 30
0.0
 11
13.0
 21
0.0
 31
0.0
  0
LINE
  5
35A
  8
0
 10
34.0
 20
0.0
 30
0.0
 11
37.0
 21
0.0
 31
0.0
  0
ENDSEC
  0
EOF
