ISO-10303-21;
HEADER;
FILE_DESCRIPTION(('YSACC TANK CAD SMC PANEL 3D MODEL'), '2;1');
FILE_NAME('SMC_500x1000_std.stp', '2026-10-01T00:00:00', ('YSACC CAD TEAM'), ('YSACC CO.,LTD'), 'TANKCAD 3D ENGINE', 'TANKCAD', '');
FILE_SCHEMA(('CONFIG_CONTROL_DESIGN'));
ENDSEC;
DATA;
#1=CARTESIAN_POINT('', (0.0, 0.0, 0.0));
#2=CARTESIAN_POINT('', (500.0, 0.0, 0.0));
#3=CARTESIAN_POINT('', (500.0, 1000.0, 0.0));
#4=CARTESIAN_POINT('', (0.0, 1000.0, 0.0));
#5=CARTESIAN_POINT('', (50.0, 50.0, 0.0));
#6=CARTESIAN_POINT('', (450.0, 50.0, 0.0));
#7=CARTESIAN_POINT('', (450.0, 950.0, 0.0));
#8=CARTESIAN_POINT('', (50.0, 950.0, 0.0));
#9=CARTESIAN_POINT('', (250.0, 752.0, 60.0));
#10=CARTESIAN_POINT('', (362.0, 500.0, 60.0));
#11=CARTESIAN_POINT('', (250.0, 248.0, 60.0));
#12=CARTESIAN_POINT('', (138.0, 500.0, 60.0));
#13=DIRECTION('', (1.0, 0.0, 0.0));
#14=DIRECTION('', (0.0, 1.0, 0.0));
#15=DIRECTION('', (0.0, 0.0, 1.0));
#16=EDGE_CURVE('', #1, #2, #1, .T.);
#17=EDGE_CURVE('', #2, #3, #2, .T.);
#18=EDGE_CURVE('', #3, #4, #3, .T.);
#19=EDGE_CURVE('', #4, #1, #4, .T.);
#20=EDGE_CURVE('', #5, #6, #5, .T.);
#21=EDGE_CURVE('', #6, #7, #6, .T.);
#22=EDGE_CURVE('', #7, #8, #7, .T.);
#23=EDGE_CURVE('', #8, #5, #8, .T.);
#24=EDGE_CURVE('', #9, #10, #9, .T.);
#25=EDGE_CURVE('', #10, #11, #10, .T.);
#26=EDGE_CURVE('', #11, #12, #11, .T.);
#27=EDGE_CURVE('', #12, #9, #12, .T.);
#28=EDGE_CURVE('', #5, #12, #5, .T.);
#29=EDGE_CURVE('', #6, #10, #6, .T.);
#30=EDGE_CURVE('', #7, #10, #7, .T.);
#31=EDGE_CURVE('', #8, #12, #8, .T.);
#32=CARTESIAN_POINT('', (25.0, 100.0, 0.0));
#33=AXIS2_PLACEMENT_3D('', #32, #15, #13);
#34=CIRCLE('', #33, 7.0);
#35=CARTESIAN_POINT('', (25.0, 200.0, 0.0));
#36=AXIS2_PLACEMENT_3D('', #35, #15, #13);
#37=CIRCLE('', #36, 7.0);
#38=CARTESIAN_POINT('', (25.0, 300.0, 0.0));
#39=AXIS2_PLACEMENT_3D('', #38, #15, #13);
#40=CIRCLE('', #39, 7.0);
#41=CARTESIAN_POINT('', (25.0, 400.0, 0.0));
#42=AXIS2_PLACEMENT_3D('', #41, #15, #13);
#43=CIRCLE('', #42, 7.0);
#44=CARTESIAN_POINT('', (25.0, 500.0, 0.0));
#45=AXIS2_PLACEMENT_3D('', #44, #15, #13);
#46=CIRCLE('', #45, 7.0);
#47=CARTESIAN_POINT('', (25.0, 600.0, 0.0));
#48=AXIS2_PLACEMENT_3D('', #47, #15, #13);
#49=CIRCLE('', #48, 7.0);
#50=CARTESIAN_POINT('', (25.0, 700.0, 0.0));
#51=AXIS2_PLACEMENT_3D('', #50, #15, #13);
#52=CIRCLE('', #51, 7.0);
#53=CARTESIAN_POINT('', (25.0, 800.0, 0.0));
#54=AXIS2_PLACEMENT_3D('', #53, #15, #13);
#55=CIRCLE('', #54, 7.0);
#56=CARTESIAN_POINT('', (25.0, 900.0, 0.0));
#57=AXIS2_PLACEMENT_3D('', #56, #15, #13);
#58=CIRCLE('', #57, 7.0);
#59=CARTESIAN_POINT('', (475.0, 100.0, 0.0));
#60=AXIS2_PLACEMENT_3D('', #59, #15, #13);
#61=CIRCLE('', #60, 7.0);
#62=CARTESIAN_POINT('', (475.0, 200.0, 0.0));
#63=AXIS2_PLACEMENT_3D('', #62, #15, #13);
#64=CIRCLE('', #63, 7.0);
#65=CARTESIAN_POINT('', (475.0, 300.0, 0.0));
#66=AXIS2_PLACEMENT_3D('', #65, #15, #13);
#67=CIRCLE('', #66, 7.0);
#68=CARTESIAN_POINT('', (475.0, 400.0, 0.0));
#69=AXIS2_PLACEMENT_3D('', #68, #15, #13);
#70=CIRCLE('', #69, 7.0);
#71=CARTESIAN_POINT('', (475.0, 500.0, 0.0));
#72=AXIS2_PLACEMENT_3D('', #71, #15, #13);
#73=CIRCLE('', #72, 7.0);
#74=CARTESIAN_POINT('', (475.0, 600.0, 0.0));
#75=AXIS2_PLACEMENT_3D('', #74, #15, #13);
#76=CIRCLE('', #75, 7.0);
#77=CARTESIAN_POINT('', (475.0, 700.0, 0.0));
#78=AXIS2_PLACEMENT_3D('', #77, #15, #13);
#79=CIRCLE('', #78, 7.0);
#80=CARTESIAN_POINT('', (475.0, 800.0, 0.0));
#81=AXIS2_PLACEMENT_3D('', #80, #15, #13);
#82=CIRCLE('', #81, 7.0);
#83=CARTESIAN_POINT('', (475.0, 900.0, 0.0));
#84=AXIS2_PLACEMENT_3D('', #83, #15, #13);
#85=CIRCLE('', #84, 7.0);
ENDSEC;
END-ISO-10303-21;